<svg width="26" height="24" viewBox="0 0 26 24" fill="none" xmlns="http://www.w3.org/2000/svg">
<ellipse cx="12.5294" cy="12" rx="12.5294" ry="12" fill="#043376"/>
<path fill-rule="evenodd" clip-rule="evenodd" d="M11.7578 6.75C11.7578 6.55109 11.8373 6.36032 11.9789 6.21967C12.1204 6.07902 12.3124 6 12.5126 6C12.7128 6 12.9048 6.07902 13.0463 6.21967C13.1879 6.36032 13.2674 6.55109 13.2674 6.75V17.25C13.2674 17.4489 13.1879 17.6397 13.0463 17.7803C12.9048 17.921 12.7128 18 12.5126 18C12.3124 18 12.1204 17.921 11.9789 17.7803C11.8373 17.6397 11.7578 17.4489 11.7578 17.25V6.75Z" fill="white"/>
<path fill-rule="evenodd" clip-rule="evenodd" d="M6.25781 12.0002C6.25781 11.8085 6.34032 11.6246 6.48717 11.4891C6.63403 11.3535 6.83321 11.2773 7.0409 11.2773H18.0041C18.2118 11.2773 18.411 11.3535 18.5579 11.4891C18.7047 11.6246 18.7872 11.8085 18.7872 12.0002C18.7872 12.192 18.7047 12.3758 18.5579 12.5114C18.411 12.647 18.2118 12.7231 18.0041 12.7231H7.0409C6.83321 12.7231 6.63403 12.647 6.48717 12.5114C6.34032 12.3758 6.25781 12.192 6.25781 12.0002Z" fill="white"/>
</svg>
