<svg width="19" height="19" viewBox="0 0 19 19" fill="none" xmlns="http://www.w3.org/2000/svg">
<path d="M9.01348 1.03516H5.58608C2.76733 1.03516 1 3.03074 1 5.85591V13.4771C1 16.3023 2.75908 18.2978 5.58608 18.2978H13.6748C16.5027 18.2978 18.2618 16.3023 18.2618 13.4771V9.78478" stroke="#2A353A" stroke-linecap="round" stroke-linejoin="round"/>
<path fill-rule="evenodd" clip-rule="evenodd" d="M6.57059 8.48961L13.4209 1.63938C14.2743 0.786875 15.6576 0.786875 16.511 1.63938L17.6266 2.75496C18.48 3.60838 18.48 4.99255 17.6266 5.84505L10.7433 12.7283C10.3702 13.1014 9.86415 13.3113 9.33615 13.3113H5.90234L5.98851 9.84631C6.00134 9.33661 6.20942 8.85081 6.57059 8.48961Z" stroke="#2A353A" stroke-linecap="round" stroke-linejoin="round"/>
<path d="M12.3809 2.69727L16.5664 6.88277" stroke="#2A353A" stroke-linecap="round" stroke-linejoin="round"/>
</svg>
