<svg width="16" height="16" viewBox="0 0 16 16" fill="none" xmlns="http://www.w3.org/2000/svg">
<path d="M4.1 2.15C0.35 4.28 0 4.53 0 5.03C0 5.33 0.27 5.75 0.55 5.88C0.74 5.97 2.65 6 8.05 6H15.28L15.59 5.74C15.85 5.53 15.9 5.41 15.9 5.07C15.9 4.84 15.83 4.57 15.76 4.47C15.69 4.38 14.08 3.42 12.19 2.34C8.6 0.29 8.06 0 7.93 0C7.89 0.0100002 6.16 0.97 4.1 2.15ZM11.52 3.05L14.95 5H12.28H9.6L9.66 4.57C9.87 3.03 8.34 2.01 7.02 2.82C6.53 3.12 6.27 3.71 6.32 4.42L6.36 5H3.71C2.26 5 1.09 4.98 1.11 4.96C1.24 4.83 7.87 1.11 7.97 1.1C8.04 1.1 9.64 1.98 11.52 3.05ZM8.51 3.69C8.68 3.82 8.74 3.98 8.74 4.25C8.74 4.7 8.43 5 7.98 5C7.62 5 7.2 4.6 7.2 4.25C7.2 3.64 8.02 3.29 8.51 3.69Z" fill="#2A353A"/>
<path d="M2.00044 8.96V10.92L1.75044 11.12C1.45044 11.35 1.43044 11.61 1.68044 11.83C1.85044 11.98 2.43044 12 7.94044 12C11.9304 12 14.0804 11.96 14.2104 11.9C14.5004 11.74 14.4704 11.23 14.1504 11.08L13.9004 10.97V8.98V7H13.4504H13.0004V9V11H11.7004H10.4004V9V7H9.95045H9.50044V9V11H7.95044H6.40044V9V7H5.95044H5.50044V9V11H4.20044H2.90044V9V7H2.45044H2.00044V8.96Z" fill="#2A353A"/>
<path d="M0.97945 13.11C0.72945 13.25 0.73945 13.76 0.98945 13.9C1.11945 13.96 3.50945 14 8.03945 14C14.1295 14 14.8995 13.98 15.0395 13.84C15.2395 13.64 15.2395 13.36 15.0395 13.16C14.8995 13.02 14.1295 13 8.01945 13C3.53945 13.01 1.08945 13.04 0.97945 13.11Z" fill="#2A353A"/>
<path d="M0.169851 15.18C-0.0501492 15.42 -0.0401492 15.63 0.179851 15.83C0.349851 15.99 1.02985 16 7.93985 16C12.9699 16 15.5799 15.97 15.7099 15.9C15.9699 15.76 15.9699 15.24 15.7099 15.1C15.5799 15.03 12.9599 15 7.91985 15C0.689851 15 0.319851 15.01 0.169851 15.18Z" fill="#2A353A"/>
</svg>
