<svg width="65" height="69" viewBox="0 0 65 69" fill="none" xmlns="http://www.w3.org/2000/svg">
<path d="M75.1417 58.1045L38.6516 94.5946C24.8859 86.3071 13.4622 74.6447 5.46104 60.7107C3.27156 56.8851 1.33485 52.8545 0.388696 48.5575C-0.403751 44.9471 -0.113415 40.5238 2.47228 38.1464L38.1939 2.5C36.3255 4.98664 36.1718 8.84982 36.8788 12.064C37.7157 15.8794 39.3313 19.4727 41.2134 22.9055C41.4559 23.3427 41.7018 23.7799 41.9477 24.2137C49.9506 38.1494 61.3753 49.8138 75.1417 58.1045Z" fill="#B3D3FF"/>
<path d="M35.4844 32.4456C38.1024 36.6301 41.0118 40.625 44.1911 44.4007C47.3208 48.112 50.7073 51.5989 54.3256 54.8357C56.4057 56.7007 58.5679 58.4734 60.7915 60.1676L60.6173 58.8218L58.2263 61.2128L52.5562 66.8829L45.7043 73.7348L39.7814 79.6577C38.8216 80.6141 37.8208 81.5466 36.8986 82.5406L36.8542 82.5816L37.8789 82.4483C37.3665 82.0794 36.8587 81.7071 36.3555 81.3314C35.8294 80.9352 35.5118 80.6892 35.0336 80.3067C34.0908 79.5643 33.164 78.8026 32.2532 78.0216C30.4337 76.439 28.6758 74.7812 26.9793 73.0483C25.2828 71.3154 23.657 69.5164 22.1017 67.6514C20.5475 65.7728 19.2017 63.9966 17.7876 61.9506C16.1936 59.6598 14.7237 57.2939 13.3779 54.8528C13.2625 54.6575 13.0747 54.5157 12.8553 54.4581C12.636 54.4005 12.4027 54.4319 12.2063 54.5453C12.0131 54.6626 11.873 54.8503 11.8156 55.0689C11.7583 55.2876 11.7881 55.5199 11.8989 55.7169C16.7212 64.3866 23.0025 72.1597 30.4668 78.6945C32.5777 80.539 34.7728 82.2775 37.0523 83.9103C37.2146 84.0014 37.4021 84.0377 37.5867 84.0137C37.7714 83.9897 37.9433 83.9067 38.077 83.7771L40.468 81.3861L46.1381 75.716L52.99 68.864L58.9129 62.9412C59.8727 61.9814 60.8564 61.0386 61.7957 60.0583L61.8401 60.0139C61.9296 59.9196 61.997 59.8066 62.0373 59.683C62.0776 59.5595 62.0899 59.4285 62.0732 59.2996C62.0565 59.1707 62.0113 59.0471 61.9409 58.9379C61.8704 58.8286 61.7765 58.7365 61.6659 58.6681C61.1946 58.3265 60.8291 58.026 60.2996 57.6195C59.7702 57.213 59.3603 56.8714 58.8992 56.4889C57.961 55.7215 57.0354 54.9359 56.1222 54.132C54.3256 52.538 52.5835 50.8917 50.8962 49.1929C49.2088 47.4942 47.567 45.71 45.9707 43.8405C44.3961 42.0028 42.9478 40.1891 41.561 38.3207C39.9397 36.1323 38.406 33.8814 36.96 31.5678C36.9061 31.4653 36.832 31.3747 36.7422 31.3017C36.6523 31.2286 36.5486 31.1744 36.4373 31.1425C36.3259 31.1106 36.2093 31.1016 36.0944 31.1161C35.9794 31.1305 35.8686 31.168 35.7686 31.2265C35.6686 31.2849 35.5815 31.363 35.5125 31.456C35.4435 31.5491 35.3941 31.6551 35.3672 31.7678C35.3403 31.8804 35.3366 31.9974 35.3561 32.1115C35.3757 32.2257 35.4182 32.3347 35.481 32.432L35.4844 32.4456Z" fill="white"/>
<path d="M43.1579 65.8088L40.2033 68.7634L35.5204 73.4395L34.4444 74.5154C34.2969 74.6784 34.2177 74.8918 34.223 75.1115C34.2284 75.3312 34.3179 75.5404 34.473 75.6961C34.6282 75.8517 34.8372 75.9418 35.0569 75.9477C35.2766 75.9537 35.4902 75.875 35.6536 75.728L38.6116 72.7734L43.2843 68.0973L44.3636 67.0214C44.5244 66.8606 44.6148 66.6425 44.6148 66.4151C44.6148 66.1877 44.5244 65.9696 44.3636 65.8088C44.2028 65.648 43.9848 65.5576 43.7574 65.5576C43.53 65.5576 43.3119 65.648 43.1511 65.8088H43.1579ZM51.868 56.7571L50.2079 58.4001L49.9757 58.6358C49.8956 58.7152 49.8321 58.8096 49.7888 58.9137C49.7454 59.0177 49.7231 59.1293 49.7231 59.2421C49.7231 59.3548 49.7454 59.4664 49.7888 59.5705C49.8321 59.6745 49.8956 59.769 49.9757 59.8484C50.1363 60.0081 50.3537 60.0977 50.5803 60.0977C50.8072 60.0947 51.0245 60.0056 51.1882 59.8484L52.8312 58.202L53.0635 57.9697C53.2231 57.8073 53.3137 57.5894 53.3162 57.3617C53.315 57.1347 53.2241 56.9174 53.0635 56.7571C52.9841 56.6777 52.8899 56.6148 52.7861 56.572C52.6824 56.5292 52.5711 56.5074 52.4589 56.5078C52.2329 56.5106 52.0166 56.5998 51.8543 56.7571H51.868ZM47.3182 52.3372L45.6753 53.9801L45.4396 54.2158C45.2796 54.3771 45.1898 54.595 45.1898 54.8221C45.1898 55.0493 45.2796 55.2672 45.4396 55.4284C45.6015 55.5883 45.82 55.6779 46.0476 55.6778C46.2734 55.6742 46.4895 55.5851 46.6522 55.4284L48.2986 53.782L48.5308 53.5498C48.6109 53.4704 48.6744 53.3759 48.7177 53.2719C48.7611 53.1678 48.7834 53.0562 48.7834 52.9435C48.7834 52.8307 48.7611 52.7191 48.7177 52.6151C48.6744 52.511 48.6109 52.4166 48.5308 52.3372C48.3702 52.1775 48.1528 52.0878 47.9262 52.0878C47.6993 52.0908 47.482 52.18 47.3182 52.3372ZM42.4508 46.8891L40.8079 48.5321L40.5722 48.7678C40.4122 48.929 40.3224 49.1469 40.3224 49.374C40.3224 49.6012 40.4122 49.8191 40.5722 49.9803C40.7341 50.1382 40.9507 50.2275 41.1768 50.2297C41.4037 50.2267 41.6211 50.1376 41.7848 49.9803L43.4277 48.334L43.6634 48.1017C43.8206 47.938 43.9098 47.7207 43.9128 47.4937C43.9128 47.2663 43.8224 47.0482 43.6617 46.8875C43.5009 46.7267 43.2828 46.6364 43.0554 46.6364C42.8292 46.6411 42.6132 46.7315 42.4508 46.8891ZM37.259 40.6042L35.616 42.2472L35.3803 42.4828C35.223 42.6451 35.1338 42.8614 35.131 43.0874C35.131 43.3148 35.2213 43.5329 35.3821 43.6937C35.5429 43.8544 35.7609 43.9448 35.9883 43.9448C36.2148 43.9414 36.4313 43.8508 36.5929 43.692L38.2393 42.049L38.4715 41.8168C38.5516 41.7374 38.6151 41.6429 38.6584 41.5389C38.7018 41.4348 38.7241 41.3232 38.7241 41.2105C38.7241 41.0978 38.7018 40.9861 38.6584 40.8821C38.6151 40.778 38.5516 40.6836 38.4715 40.6042C38.3112 40.4435 38.0939 40.3527 37.867 40.3514C37.6396 40.3557 37.4223 40.446 37.259 40.6042ZM38.0275 61.6245L35.0729 64.5825L30.3968 69.2552L29.3208 70.3346C29.2412 70.4142 29.178 70.5087 29.135 70.6128C29.0919 70.7168 29.0697 70.8283 29.0697 70.9409C29.0697 71.1683 29.16 71.3864 29.3208 71.5472C29.4816 71.708 29.6997 71.7983 29.9271 71.7983C30.1545 71.7983 30.3726 71.708 30.5334 71.5472L33.488 68.5892L38.1607 63.9165L39.2401 62.8371C39.4009 62.6763 39.4912 62.4582 39.4912 62.2308C39.4912 62.0034 39.4009 61.7853 39.2401 61.6245C39.0793 61.4637 38.8612 61.3734 38.6338 61.3734C38.4064 61.3734 38.1883 61.4637 38.0275 61.6245ZM33.4129 56.7571L30.4583 59.7117L25.7821 64.3878L24.7028 65.4638C24.6227 65.5434 24.5591 65.638 24.5156 65.7422C24.4721 65.8464 24.4495 65.9582 24.4492 66.0711C24.4489 66.184 24.4708 66.2959 24.5137 66.4003C24.5567 66.5048 24.6197 66.5997 24.6994 66.6798C24.779 66.7599 24.8736 66.8235 24.9778 66.867C25.082 66.9105 25.1937 66.933 25.3066 66.9333C25.4196 66.9337 25.5314 66.9117 25.6359 66.8688C25.7403 66.8259 25.8353 66.7628 25.9154 66.6832L28.8699 63.7286L33.5461 59.0525L34.6254 57.9765C34.7862 57.8157 34.8766 57.5976 34.8766 57.3702C34.8766 57.1428 34.7862 56.9248 34.6254 56.764C34.4646 56.6032 34.2465 56.5128 34.0191 56.5128C33.7917 56.5128 33.5737 56.6032 33.4129 56.764V56.7571ZM27.8828 39.9552C30.5043 44.1521 33.4207 48.1575 36.61 51.941C39.7448 55.666 43.1394 59.1645 46.7683 62.4101C48.8473 64.2683 50.9992 66.041 53.224 67.7284C53.4202 67.8428 53.6537 67.8746 53.8734 67.817C54.093 67.7594 54.2808 67.617 54.3956 67.421C54.5038 67.2234 54.5323 66.9919 54.4751 66.774C54.4179 66.5561 54.2795 66.3684 54.0882 66.2494L53.7466 65.983L53.569 65.8464L53.5109 65.8019L52.7595 65.2144C52.2813 64.8319 51.8031 64.4493 51.3317 64.0599C50.4026 63.3016 49.4918 62.5263 48.5991 61.7338C46.7774 60.1398 45.0183 58.4775 43.3219 56.7469C41.6254 55.0162 39.9813 53.2344 38.3896 51.4013C37.6108 50.4904 36.8468 49.567 36.0976 48.6311L35.5511 47.948L35.2813 47.6064L35.148 47.4322L35.0558 47.3127C34.6824 46.8276 34.3146 46.3392 33.9525 45.8473C32.3335 43.6522 30.8067 41.3989 29.3721 39.0876C29.3151 38.9905 29.2396 38.9056 29.1498 38.8376C29.06 38.7697 28.9577 38.7201 28.8487 38.6918C28.7398 38.6634 28.6263 38.6567 28.5148 38.6722C28.4033 38.6877 28.2959 38.7249 28.1988 38.7819C28.1016 38.8389 28.0167 38.9144 27.9488 39.0042C27.8809 39.094 27.8313 39.1963 27.8029 39.3052C27.7745 39.4142 27.7679 39.5277 27.7833 39.6392C27.7988 39.7507 27.8361 39.8581 27.8931 39.9552H27.8828Z" fill="white"/>
<path d="M57.9732 7.2027L41.2123 22.915C39.3302 19.4993 37.7146 15.8889 36.8777 12.0735C36.1707 8.85591 36.3244 4.99273 38.1928 2.50951C38.7272 1.78491 39.4154 1.18766 40.2081 0.760659C42.5991 -0.509989 45.54 -0.00104671 48.0642 0.921197C51.7847 2.26955 55.1663 4.41321 57.9732 7.2027Z" fill="#6A77D4"/>
<path d="M13.245 55.9142L13.8803 55.2857L15.5881 53.5778L18.1294 51.0673L21.2412 47.9931L24.6569 44.6389L28.0999 41.2232L31.297 38.067L34.0091 35.3857L35.9527 33.4695C36.2601 33.1655 36.5709 32.8683 36.8749 32.5575L36.9159 32.5165C37.0021 32.4385 37.0716 32.3437 37.12 32.238C37.1685 32.1323 37.1949 32.0178 37.1977 31.9016C37.2006 31.7853 37.1797 31.6697 37.1364 31.5618C37.0932 31.4538 37.0284 31.3558 36.946 31.2737C36.8637 31.1916 36.7655 31.1271 36.6574 31.0841C36.5494 31.0411 36.4337 31.0206 36.3174 31.0238C36.2012 31.0269 36.0868 31.0537 35.9812 31.1024C35.8757 31.1512 35.7811 31.2209 35.7033 31.3073L35.068 31.9324L33.3601 33.6403L30.8188 36.1508L27.7071 39.225L24.2914 42.5792L20.8484 45.9949L17.6512 49.1545L14.9392 51.8324L12.9956 53.752C12.6882 54.056 12.3774 54.3532 12.0734 54.6606L12.0324 54.7016C11.8716 54.8624 11.7812 55.0805 11.7812 55.3079C11.7813 55.5353 11.8716 55.7534 12.0324 55.9142C12.1932 56.075 12.4113 56.1653 12.6387 56.1653C12.8661 56.1653 13.0842 56.075 13.245 55.9142Z" fill="white"/>
<path d="M37.3643 42.3751C37.4741 42.2466 37.6104 42.1435 37.7639 42.0728C37.9174 42.0021 38.0844 41.9655 38.2534 41.9655C38.4224 41.9655 38.5894 42.0021 38.7429 42.0728C38.8964 42.1435 39.0328 42.2466 39.1426 42.3751L38.5894 41.2052C38.5498 41.1424 38.4949 41.0906 38.4299 41.0547C38.3648 41.0188 38.2918 41 38.2175 41C38.1432 41 38.0701 41.0188 38.005 41.0547C37.94 41.0906 37.8851 41.1424 37.8455 41.2052L37.3643 42.3751Z" fill="#6A77D4"/>
<path d="M36.118 45.3331H40.4961L39.1464 42.3987L39.1299 42.3627C39.02 42.2343 38.8837 42.1312 38.7302 42.0604C38.5767 41.9897 38.4097 41.9531 38.2407 41.9531C38.0717 41.9531 37.9047 41.9897 37.7512 42.0604C37.5977 42.1312 37.4614 42.2343 37.3515 42.3627L36.118 45.3331Z" fill="#F3F9FF"/>
<path d="M36.0106 46.115V61.8434L40.5767 61.7438V46.0182V45.9795C40.5864 45.8793 40.5864 45.7783 40.5767 45.678C40.5493 45.4331 40.4721 45.1964 40.3499 44.9824C40.2276 44.7684 40.063 44.5816 39.8659 44.4335C39.3609 44.0557 38.7312 43.8837 38.1042 43.9523C36.9675 44.0629 36.0963 44.8566 36.0078 45.7997C35.9979 45.9046 35.9988 46.0103 36.0106 46.115Z" fill="#66A7FF"/>
<path d="M36.0098 61.8416C36.1122 62.9174 37.2184 63.6891 38.4796 63.5646C39.7407 63.4401 40.6921 62.4777 40.5787 61.4046C40.5519 61.1595 40.475 60.9225 40.3527 60.7084C40.2304 60.4943 40.0654 60.3077 39.8679 60.1601C39.3629 59.7822 38.7332 59.6102 38.1062 59.6788C36.8451 59.8005 35.9047 60.7685 36.0098 61.8416Z" fill="#6A77D4"/>
</svg>
