<svg width="19" height="18" viewBox="0 0 19 18" fill="none" xmlns="http://www.w3.org/2000/svg">
<path fill-rule="evenodd" clip-rule="evenodd" d="M2.85389 2H16.8639C17.9659 2 18.8589 2.895 18.8589 3.994V16.006C18.8589 16.2679 18.8073 16.5273 18.707 16.7693C18.6067 17.0113 18.4598 17.2312 18.2745 17.4163C18.0892 17.6015 17.8693 17.7484 17.6273 17.8485C17.3852 17.9487 17.1258 18.0001 16.8639 18H2.85389C2.32495 18 1.81767 17.7899 1.44356 17.416C1.06946 17.0421 0.859152 16.5349 0.858887 16.006V3.994C0.858887 2.893 1.75089 2 2.85389 2ZM2.85889 6V15C2.85889 15.2652 2.96424 15.5196 3.15178 15.7071C3.33932 15.8946 3.59367 16 3.85889 16H15.8589C16.1241 16 16.3785 15.8946 16.566 15.7071C16.7535 15.5196 16.8589 15.2652 16.8589 15V6H2.85889ZM3.85889 1C3.85889 0.734784 3.96424 0.48043 4.15178 0.292893C4.33932 0.105357 4.59367 0 4.85889 0C5.1241 0 5.37846 0.105357 5.56599 0.292893C5.75353 0.48043 5.85889 0.734784 5.85889 1V2H3.85889V1ZM13.8589 1C13.8589 0.734784 13.9642 0.48043 14.1518 0.292893C14.3393 0.105357 14.5937 0 14.8589 0C15.1241 0 15.3785 0.105357 15.566 0.292893C15.7535 0.48043 15.8589 0.734784 15.8589 1V2H13.8589V1ZM4.85889 10V7.999H6.85889V10H4.85889ZM12.8589 10V7.999H14.8589V10H12.8589ZM8.85889 10V7.999H10.8599V10H8.85889ZM4.85889 14V12H6.85889V14H4.85889ZM8.85889 14V12H10.8599V14H8.85889ZM12.8589 14V12H14.8589V14H12.8589Z" fill="#8E8E8E"/>
</svg>
