<svg width="18" height="19" viewBox="0 0 18 19" fill="none" xmlns="http://www.w3.org/2000/svg">
<path d="M13.3401 0.00475002C13.4494 0.00475002 13.5539 0.00475002 13.6631 0.00475002C14.0669 0.15675 14.2189 0.45125 14.1904 0.86925C14.1809 1.026 14.1904 1.1875 14.1904 1.3585C14.5276 1.3585 14.8411 1.3395 15.1546 1.36325C15.4396 1.387 15.7389 1.42025 16.0049 1.52C16.9881 1.881 17.5676 2.76925 17.5676 3.86175C17.5676 6.40775 17.5676 8.95375 17.5676 11.4998C17.5676 12.92 17.5724 14.3355 17.5676 15.7557C17.5629 16.9195 16.8646 17.86 15.7864 18.1592C15.6724 18.1925 15.5584 18.2162 15.4444 18.2447C11.0031 18.2447 6.56186 18.2447 2.12061 18.2447C1.90211 18.1782 1.66936 18.1402 1.46511 18.0405C0.491361 17.5845 0.00211111 16.8102 0.00211111 15.7367C-0.00263889 12.5542 0.00211111 9.37175 0.00211111 6.18925C0.00211111 5.396 -0.00263889 4.598 0.00211111 3.80475C0.0116111 2.61725 0.766861 1.653 1.90211 1.42025C2.30111 1.3395 2.72861 1.37275 3.14186 1.35375C3.21786 1.349 3.28911 1.35375 3.37461 1.35375C3.37461 1.17325 3.38411 1.0165 3.37461 0.8645C3.34611 0.4465 3.50286 0.152 3.90186 0C4.01111 0 4.11561 0 4.22486 0C4.62386 0.16625 4.77111 0.475 4.73311 0.893C4.71886 1.04025 4.73311 1.1875 4.73311 1.3395C7.44536 1.3395 10.1339 1.3395 12.8461 1.3395C12.8461 1.159 12.8414 0.988 12.8461 0.817C12.8509 0.6935 12.8556 0.56525 12.8841 0.4465C12.9411 0.2185 13.1359 0.1045 13.3401 0.00475002ZM3.37461 2.71225C2.98986 2.71225 2.62411 2.68375 2.26786 2.717C1.71211 2.774 1.34636 3.249 1.34636 3.8665C1.34636 7.81375 1.34636 11.761 1.34636 15.713C1.34636 16.4587 1.78336 16.891 2.53386 16.891C5.00386 16.891 7.47386 16.891 9.94386 16.891C11.6586 16.891 13.3734 16.891 15.0929 16.891C15.4491 16.891 15.7389 16.7675 15.9716 16.4967C16.1569 16.2782 16.2186 16.017 16.2186 15.732C16.2186 11.7705 16.2186 7.81375 16.2186 3.85225C16.2186 3.78575 16.2139 3.724 16.2091 3.6575C16.1521 3.18725 15.8386 2.8025 15.3731 2.74075C14.9931 2.6885 14.5989 2.73125 14.1951 2.73125C14.1951 2.94025 14.1999 3.1445 14.1951 3.3535C14.1856 3.75725 13.9006 4.0565 13.5206 4.06125C13.1359 4.066 12.8509 3.75725 12.8461 3.344C12.8461 3.13975 12.8461 2.93075 12.8461 2.7265C10.1291 2.7265 7.44061 2.7265 4.73311 2.7265C4.73311 2.94025 4.73311 3.13975 4.73311 3.344C4.72836 3.762 4.44336 4.066 4.05861 4.066C3.67386 4.066 3.38886 3.762 3.37936 3.344C3.36986 3.135 3.37461 2.9355 3.37461 2.71225Z" fill="#ADBFCD"/>
<path d="M4.8973 14.5269C4.4413 14.5269 4.05655 14.1517 4.04705 13.6909C4.03755 13.2302 4.42705 12.8359 4.89254 12.8359C5.35804 12.8359 5.74755 13.2254 5.7428 13.6862C5.7333 14.1422 5.3533 14.5222 4.8973 14.5269Z" fill="#ADBFCD"/>
<path d="M4.9163 9.46134C5.3818 9.47559 5.7523 9.86034 5.73805 10.3163C5.7238 10.7866 5.3343 11.1618 4.8688 11.1476C4.40805 11.1333 4.03755 10.7438 4.04705 10.2878C4.05655 9.81759 4.4508 9.44709 4.9163 9.46134Z" fill="#ADBFCD"/>
<path d="M12.3299 6.08203C12.8049 6.08203 13.1707 6.45728 13.1659 6.93703C13.1612 7.40253 12.7859 7.76828 12.3204 7.76828C11.8502 7.76828 11.4797 7.38828 11.4844 6.91328C11.4892 6.44778 11.8644 6.08203 12.3299 6.08203Z" fill="#ADBFCD"/>
<path d="M7.77348 13.687C7.76873 13.2168 8.14873 12.832 8.61423 12.832C9.07498 12.832 9.45498 13.212 9.45973 13.668C9.46448 14.1335 9.07973 14.523 8.61423 14.523C8.15348 14.5278 7.77823 14.1525 7.77348 13.687Z" fill="#ADBFCD"/>
<path d="M13.1737 10.3009C13.1737 10.7711 12.7984 11.1511 12.3282 11.1511C11.8674 11.1464 11.4922 10.7711 11.4922 10.3104C11.4922 9.84014 11.8722 9.46014 12.3377 9.46489C12.8032 9.46489 13.1689 9.83539 13.1737 10.3009Z" fill="#ADBFCD"/>
<path d="M4.89717 7.77139C4.42692 7.77139 4.04217 7.39139 4.04692 6.92589C4.05167 6.46514 4.42217 6.08989 4.88767 6.08989C5.35792 6.08514 5.74267 6.46514 5.73792 6.93539C5.73792 7.39139 5.35792 7.76664 4.89717 7.77139Z" fill="#ADBFCD"/>
<path d="M13.1737 13.6777C13.1737 14.148 12.7937 14.5327 12.3282 14.5232C11.8674 14.5185 11.4969 14.1385 11.4922 13.6777C11.4922 13.2075 11.8769 12.8227 12.3424 12.8322C12.8032 12.8417 13.1689 13.217 13.1737 13.6777Z" fill="#ADBFCD"/>
<path d="M7.77344 10.3065C7.77344 9.83623 8.14869 9.45623 8.61894 9.46098C9.07969 9.46573 9.45494 9.84098 9.45494 10.3017C9.45494 10.7672 9.07019 11.152 8.60469 11.1472C8.14869 11.1472 7.77819 10.772 7.77344 10.3065Z" fill="#ADBFCD"/>
<path d="M8.60948 7.77134C8.14873 7.77134 7.77348 7.40084 7.77348 6.93534C7.76873 6.46034 8.14398 6.08984 8.61898 6.08984C9.08448 6.08984 9.45498 6.46034 9.45973 6.92584C9.45973 7.39134 9.07973 7.77134 8.60948 7.77134Z" fill="#ADBFCD"/>
</svg>
