<svg width="18" height="18" viewBox="0 0 18 18" fill="none" xmlns="http://www.w3.org/2000/svg">
<path d="M7.61954 0.0696316C5.83269 0.341051 4.18156 1.15531 2.85839 2.39931C1.53522 3.65463 0.69834 5.02304 0.245974 6.7081C-0.0819913 7.92949 -0.0819913 10.0556 0.245974 11.277C0.517393 12.2722 1.11678 13.5388 1.69354 14.3192C2.71137 15.7102 4.45298 16.9881 6.03626 17.5196C10.8313 19.1029 15.7847 16.6601 17.5037 11.8425C17.843 10.8925 17.8543 10.7907 17.8543 8.99255C17.8543 7.19439 17.843 7.09261 17.5037 6.14264C16.4407 3.16834 13.9979 0.906507 11.1028 0.227959C10.1528 0.00177574 8.52427 -0.0660782 7.61954 0.0696316ZM11.4081 1.46066C13.8848 2.29753 15.6377 4.05045 16.5198 6.56108C16.8026 7.37534 16.8365 7.61283 16.8365 8.99255C16.8365 10.3723 16.8026 10.6098 16.5198 11.424C15.3889 14.6471 12.6973 16.7054 9.36115 16.8863C6.16066 17.0447 3.28813 15.3709 1.89711 12.5549C1.22987 11.1865 1.04892 10.4288 1.04892 8.99255C1.04892 7.55629 1.22987 6.79857 1.89711 5.43017C2.92624 3.33797 4.75832 1.8904 7.11062 1.27971C8.29809 0.974363 10.198 1.05353 11.4081 1.46066Z" fill="white"/>
<path d="M10.0295 8.3371L7.85813 10.5085L6.79507 9.46801C6.20699 8.89124 5.65284 8.42757 5.56237 8.42757C5.35881 8.42757 5.01953 8.77815 5.01953 9.00434C5.01953 9.2079 7.63194 11.8203 7.83551 11.8203C7.92598 11.8203 9.09082 10.7459 10.414 9.42277C12.3818 7.45498 12.8228 6.96869 12.8228 6.70858C12.8228 6.42585 12.5627 6.16574 12.2913 6.16574C12.2461 6.16574 11.2169 7.13833 10.0295 8.3371Z" fill="white"/>
</svg>
