<svg width="17" height="18" viewBox="0 0 17 18" fill="none" xmlns="http://www.w3.org/2000/svg">
<path fill-rule="evenodd" clip-rule="evenodd" d="M15.5901 5.44952L15.0719 4.55047C14.6337 3.78974 13.6623 3.52731 12.9005 3.96381C12.5379 4.17742 12.1052 4.23802 11.6979 4.13226C11.2905 4.02649 10.942 3.76304 10.7291 3.4C10.5921 3.16925 10.5186 2.90641 10.5157 2.63809C10.5281 2.2079 10.3658 1.79103 10.0658 1.48244C9.76584 1.17385 9.35373 0.999817 8.92339 1H7.87958C7.45798 0.999992 7.05369 1.168 6.75628 1.46685C6.45886 1.76571 6.29279 2.17075 6.29482 2.59238C6.28232 3.46288 5.57303 4.16199 4.70244 4.1619C4.43411 4.15911 4.17129 4.08552 3.94053 3.94857C3.17875 3.51207 2.20741 3.7745 1.7691 4.53524L1.21291 5.44952C0.775127 6.2093 1.03399 7.18004 1.79196 7.62097C2.28464 7.9054 2.58815 8.43113 2.58815 8.99998C2.58815 9.56891 2.28464 10.0946 1.79196 10.3791C1.03496 10.817 0.77581 11.7854 1.21291 12.5428L1.73863 13.4496C1.94399 13.8201 2.28856 14.0936 2.69608 14.2094C3.10361 14.3252 3.54049 14.2739 3.91005 14.0667C4.27335 13.8547 4.70628 13.7966 5.11261 13.9054C5.51894 14.0141 5.865 14.2806 6.07386 14.6457C6.21082 14.8765 6.28441 15.1393 6.2872 15.4077C6.2872 16.2871 7.00017 17 7.87958 17H8.92339C9.79988 17 10.5116 16.2917 10.5157 15.4152C10.5137 14.9923 10.6809 14.5861 10.98 14.287C11.279 13.9879 11.6852 13.8208 12.1082 13.8229C12.3759 13.83 12.6376 13.9033 12.87 14.0362C13.6298 14.474 14.6006 14.2151 15.0415 13.4571L15.5901 12.5428C15.8024 12.1784 15.8607 11.7443 15.752 11.3367C15.6433 10.9292 15.3766 10.5818 15.011 10.3714C14.6454 10.1611 14.3787 9.81363 14.27 9.4061C14.1613 8.99856 14.2197 8.56448 14.432 8.19998C14.57 7.95892 14.77 7.75906 15.011 7.62097C15.7644 7.18028 16.0227 6.21521 15.5901 5.45715V5.44952Z" stroke="#2A353A" stroke-linecap="round" stroke-linejoin="round"/>
<path d="M8.40523 11.1933C9.6171 11.1933 10.5995 10.2109 10.5995 8.99898C10.5995 7.78711 9.6171 6.80469 8.40523 6.80469C7.19336 6.80469 6.21094 7.78711 6.21094 8.99898C6.21094 10.2109 7.19336 11.1933 8.40523 11.1933Z" stroke="#2A353A" stroke-linecap="round" stroke-linejoin="round"/>
</svg>
