<svg width="16" height="16" viewBox="0 0 16 16" fill="none" xmlns="http://www.w3.org/2000/svg">
<path d="M6.48786 0.0680949C5.96176 0.193357 5.46906 0.585844 5.22689 1.07854L5.00977 1.51279V5.49613V9.47945L5.24359 9.91374C5.52752 10.4649 5.99516 10.8072 6.61312 10.9158C6.92208 10.9743 8.43362 10.9993 10.7468 10.9826C14.062 10.9575 14.4378 10.9409 14.7385 10.8072C15.1643 10.6152 15.4984 10.2979 15.7239 9.87196C15.9076 9.54628 15.9076 9.47945 15.9076 5.48778C15.9076 1.69651 15.8993 1.42093 15.7489 1.14535C15.5318 0.736159 15.2145 0.410479 14.822 0.201708C14.4963 0.01799 14.4128 0.01799 10.6466 0.00128822C8.53383 -0.00706264 6.66323 0.0263406 6.48786 0.0680949Z" fill="#ADBFCD"/>
<path d="M1.3946 5.10129C0.818389 5.31006 0.450952 5.61904 0.217129 6.07833L7.66839e-06 6.52093V10.4709C7.66839e-06 14.83 -0.00834317 14.7715 0.526109 15.3227C0.676423 15.4814 0.943651 15.6818 1.12737 15.782C1.45305 15.9657 1.54491 15.9657 5.25268 15.9908C9.4615 16.0158 9.66192 15.9991 10.2465 15.4814C10.4135 15.3394 10.639 15.0304 10.7392 14.7966C10.9145 14.4208 10.9396 14.2621 10.9396 13.1849V11.9991H10.2381H9.53666L9.50322 13.1348C9.47816 14.1369 9.4615 14.2789 9.31952 14.3874C9.18593 14.4876 8.50951 14.5043 5.42804 14.5043C1.9207 14.5043 1.68688 14.4959 1.56161 14.354C1.43635 14.212 1.41965 13.8195 1.41965 10.4792C1.41965 6.9886 1.428 6.75473 1.56996 6.62947C1.69523 6.5126 1.9207 6.48755 2.82259 6.48755H3.9249V5.73595V4.98438H2.82259C2.10441 4.99273 1.59502 5.03448 1.3946 5.10129Z" fill="#ADBFCD"/>
</svg>
