<svg width="160" height="214" viewBox="0 0 160 214" fill="none" xmlns="http://www.w3.org/2000/svg">
<path d="M18.2676 2.05729C11.4676 4.45729 3.60091 12.8573 1.73424 19.524C0.800911 22.5906 0.267578 38.724 0.267578 58.9906V93.3906H6.13425H12.1342L12.5342 57.2573L12.9342 21.124L17.3342 17.2573L21.6009 13.3906H50.8009H80.0009L80.5342 39.924C80.9342 69.124 81.2009 70.0573 90.1342 76.5906C93.4676 79.124 96.0009 79.3906 120.401 79.7906L146.934 80.1906V86.8573V93.3906H152.934H158.934V78.0573C158.934 67.124 158.401 61.524 157.068 58.9906C154.134 53.524 102.801 2.99062 98.5342 1.39062C92.5342 -0.742713 24.9342 -0.342713 18.2676 2.05729ZM120.934 40.0573L147.601 66.724H122.001C97.0676 66.724 96.4009 66.5906 94.4009 63.7906C92.6676 61.3906 92.2676 56.324 92.2676 37.124C92.2676 24.0573 92.6676 13.3906 93.3342 13.3906C93.8676 13.3906 106.268 25.3906 120.934 40.0573Z" fill="#ADBFCD"/>
<path d="M27.4663 108.052C25.9996 108.586 23.0663 110.986 21.1996 113.386C17.5996 117.519 17.5996 117.652 17.5996 140.186V162.719L22.1329 167.652C26.1329 172.052 27.3329 172.586 34.5329 173.119C43.9996 173.786 49.7329 171.386 53.5996 164.986C57.9996 157.786 56.2663 146.719 50.7996 146.719C47.3329 146.719 44.2663 149.786 44.2663 153.119C44.2663 158.986 42.6663 160.319 36.1329 159.786L30.2663 159.386V140.052V120.719L36.1329 120.319C42.6663 119.786 44.2663 121.119 44.2663 126.986C44.2663 132.586 50.2663 135.119 54.1329 131.252C59.0663 126.452 55.4663 113.919 47.8663 109.386C43.3329 106.586 32.6663 105.919 27.4663 108.052Z" fill="#ADBFCD"/>
<path d="M74.9342 109.124C67.6009 112.724 63.8676 119.391 64.5342 127.791C65.2009 136.057 68.0009 139.524 78.9342 145.924C90.8009 152.857 89.7342 160.057 76.6676 160.057C67.3342 160.057 64.2676 161.657 64.2676 166.724C64.2676 171.657 67.3342 173.391 76.2676 173.391C84.8009 173.391 90.6676 170.991 95.3342 165.524C98.2676 161.924 98.9342 159.924 98.9342 153.924C98.9342 147.657 98.4009 146.057 94.6676 141.924C92.2676 139.391 87.3342 135.657 83.6009 133.657C72.6676 127.791 73.8676 120.057 85.7342 120.057C92.5342 120.057 96.2676 117.657 96.2676 113.391C96.2676 106.857 84.2676 104.324 74.9342 109.124Z" fill="#ADBFCD"/>
<path d="M106.668 108.192C104.668 109.259 104.268 111.525 104.268 123.125C104.268 139.525 106.534 149.259 113.334 161.792C118.268 170.992 121.601 174.192 124.934 172.859C128.001 171.792 136.001 158.725 138.934 150.059C141.868 141.659 144.001 118.059 142.401 111.659C141.468 107.659 137.468 105.925 133.868 107.925C131.601 109.125 131.201 111.259 130.668 123.659C130.001 137.925 126.534 152.059 123.601 152.992C120.668 153.925 117.068 139.659 116.401 124.325C115.734 112.992 115.068 108.992 113.601 108.059C111.068 106.459 109.468 106.459 106.668 108.192Z" fill="#ADBFCD"/>
<path d="M0.933333 190.989C3.2 200.989 10.9333 209.522 20.2667 212.055C23.8667 212.989 44.9333 213.389 83.3333 213.122C138.133 212.722 141.2 212.589 145.467 210.055C152.133 206.055 157.733 198.589 158.533 192.189L159.333 186.722H153.067C147.733 186.722 146.933 187.122 146.933 189.522C146.933 190.989 145.2 194.055 143.067 196.189L139.2 200.055H80.5333H21.8667L17.7333 196.722C15.6 194.855 13.6 191.922 13.3333 190.322C12.9333 187.789 12 187.389 6.53333 186.989L0 186.589L0.933333 190.989Z" fill="#ADBFCD"/>
</svg>
