<svg width="24" height="12" viewBox="0 0 24 12" fill="none" xmlns="http://www.w3.org/2000/svg">
<path d="M14.34 0.36C13.9 0.84 13.92 1.26 14.36 1.66C14.68 1.94 15.22 2 17.72 2H20.7L17.36 5.34L14 8.7L11.14 5.84C9.56 4.28 8.14 3 7.98 3C7.58 3 0 10.62 0 11.02C0 11.4 0.62 12 1 12C1.16 12 2.76 10.52 4.58 8.7L7.9 5.42L10.84 8.2C12.44 9.74 13.88 11 14.02 11C14.16 11 16.02 9.28 18.14 7.16L22 3.32V6.32C22 9.08 22.04 9.36 22.4 9.7C22.74 10 22.88 10.02 23.3 9.84L23.8 9.6V5.02C23.8 0.68 23.78 0.4 23.42 0.2C23.18 0.0800003 21.34 2.68221e-07 18.84 2.68221e-07C15.04 2.68221e-07 14.64 0.0400003 14.34 0.36Z" fill="white"/>
</svg>
