<svg width="21" height="24" viewBox="0 0 21 24" fill="none" xmlns="http://www.w3.org/2000/svg">
<path d="M9.19329 0.18793C7.15034 0.743733 5.93358 2.57638 5.93358 5.08501V5.97129L3.69534 6.01636C1.2468 6.06142 1.02148 6.13653 0.315456 7.09792C0.0150217 7.50351 0 7.68377 0 14.068C0 20.4673 0.0150217 20.6475 0.315456 21.3235C0.736064 22.2248 1.71248 23.2012 2.61378 23.6218C3.28976 23.9222 3.51508 23.9373 9.98944 23.9823C17.7857 24.0424 18.0261 24.0124 19.3179 22.8407C20.7901 21.5188 20.73 21.8943 20.775 14.2483C20.8051 7.81896 20.8051 7.54857 20.5197 7.0829C19.9488 6.16657 19.6334 6.06142 17.1097 6.01636L14.8264 5.95627L14.7664 4.51418C14.6912 2.77167 14.4209 2.14075 13.3092 1.14932C12.7835 0.668625 12.3028 0.398234 11.6719 0.217973C10.6504 -0.0674396 10.1697 -0.0674396 9.19329 0.18793ZM12.1225 2.02058C13.0539 2.66651 13.4444 3.52275 13.4444 4.88973V5.98631H10.365H7.28553V5.31034C7.28553 2.87682 8.59242 1.40469 10.6354 1.52486C11.2813 1.55491 11.6418 1.67508 12.1225 2.02058ZM5.93358 9.48637C5.93358 11.304 5.96362 11.5293 6.23401 11.7697C6.48938 11.995 6.59454 12.01 6.90999 11.8748C7.28553 11.6946 7.28553 11.6946 7.28553 9.59153V7.48849H10.365H13.4444V9.48637C13.4444 11.304 13.4745 11.5293 13.7449 11.7697C14.0002 11.995 14.1054 12.01 14.4209 11.8748C14.7964 11.6946 14.7964 11.6946 14.7964 9.59153V7.48849H16.9595C18.6119 7.48849 19.1527 7.53355 19.2879 7.69879C19.4231 7.84901 19.4531 9.60655 19.4231 14.2182L19.378 20.5273L18.9274 21.1733C18.687 21.5188 18.1763 21.9694 17.8158 22.1647L17.1548 22.5102H10.4551C4.26617 22.5102 3.71037 22.4802 3.13954 22.2248C2.32837 21.8492 1.62235 20.978 1.42706 20.0767C1.33693 19.6411 1.27685 17.0723 1.27685 13.7525C1.27685 8.93057 1.30689 8.10438 1.51719 7.81896C1.7275 7.50351 1.84767 7.48849 3.84556 7.48849H5.93358V9.48637Z" fill="white"/>
</svg>
