<svg width="14" height="16" viewBox="0 0 14 16" fill="none" xmlns="http://www.w3.org/2000/svg">
<g id="Group 10606">
<path id="Vector" d="M5.0594 0.0975651C4.62526 0.256193 4.29131 0.606845 3.84047 1.34989L3.46477 1.9844H1.92024C0.200372 1.9844 0 2.0345 0 2.47699C0 2.78589 0.166977 2.91113 0.626164 2.96957C0.926722 3.00296 1.01021 3.04471 1.04361 3.18664C1.0603 3.27848 1.16049 4.5475 1.25233 5.99185C1.35251 7.4362 1.46105 9.07258 1.51114 9.6236C1.55289 10.1746 1.64472 11.3936 1.71151 12.337C1.7783 13.2804 1.85344 14.2071 1.87849 14.3908C1.95363 14.9418 2.35438 15.4678 2.9054 15.735L3.38128 15.9687L6.71247 15.9938C10.4027 16.0188 10.7366 15.9854 11.2876 15.568C11.9722 15.042 12.0223 14.8583 12.2394 11.7693C12.6652 5.71634 12.8572 3.18664 12.8906 3.10315C12.9073 3.05306 13.1077 2.98627 13.3248 2.96122C13.8841 2.90278 14.1012 2.56882 13.8257 2.18478C13.7172 2.04285 13.5752 2.02615 12.0808 2.0011L10.4528 1.97606L9.90173 1.14952C9.14199 0.00572781 9.20043 0.0307744 7.09652 0.00572781C5.78575 -0.0109699 5.30987 0.00572781 5.0594 0.0975651ZM8.97501 1.44173C9.13364 1.6922 9.26722 1.91761 9.26722 1.94266C9.26722 1.96771 8.23196 1.9844 6.97129 1.9844C5.19298 1.9844 4.67536 1.95936 4.67536 1.87587C4.67536 1.82578 4.80894 1.60036 4.96756 1.37494L5.25977 0.982543H6.97129H8.6828L8.97501 1.44173ZM11.8721 3.61243C11.8554 3.92969 11.7886 4.85641 11.7301 5.6579C11.6633 6.45939 11.5298 8.22934 11.4379 9.58186C11.3461 10.9344 11.2542 12.2117 11.2376 12.4205C11.2125 12.6292 11.1708 13.1301 11.1374 13.5476C11.104 13.9567 11.0288 14.3991 10.962 14.5244C10.7283 15.0003 10.6782 15.0086 6.89615 15.0086H3.43973L3.18091 14.7915C3.03898 14.6747 2.8887 14.4409 2.84696 14.2739C2.80521 14.1069 2.70503 13.0466 2.62989 11.9195C2.5631 10.7924 2.44621 9.19781 2.37942 8.37127C2.21244 6.33415 2.00372 3.42876 2.00372 3.18664V2.98627L6.95459 3.00296L11.8971 3.02801L11.8721 3.61243Z" fill="#ADBFCD"/>
</g>
</svg>
