<svg width="14" height="16" viewBox="0 0 14 16" fill="none" xmlns="http://www.w3.org/2000/svg">
<path d="M5.05799 0.0975361C4.62397 0.25612 4.29011 0.606673 3.8394 1.34951L3.4638 1.98385H1.9197C0.200316 1.98385 0 2.03393 0 2.47629C0 2.77677 0.150237 2.90196 0.575909 2.96039L0.90977 3.00212L0.934809 8.52751L0.959849 14.0446L1.17686 14.5036C1.45229 15.0879 1.83623 15.4718 2.42049 15.7472L2.87955 15.9643L6.75233 15.9893C10.4415 16.0143 10.6501 16.006 11.1843 15.8474C11.8854 15.6304 12.4196 15.1797 12.695 14.5704L12.8954 14.128L12.9204 8.56924L12.9454 3.01047L13.3294 2.96039C13.8802 2.90196 14.0973 2.55976 13.8218 2.18416C13.7133 2.04227 13.5714 2.02558 12.0774 2.00054L10.4498 1.9755L9.89896 1.1492C9.13943 0.00572395 9.19785 0.0307636 7.09453 0.00572395C5.78413 -0.0109692 5.30838 0.00572395 5.05799 0.0975361ZM8.9725 1.44132C9.13108 1.69172 9.26463 1.91708 9.26463 1.94211C9.26463 1.96715 8.22966 1.98385 6.96934 1.98385C5.19153 1.98385 4.67405 1.95881 4.67405 1.87534C4.67405 1.82526 4.80759 1.59991 4.96617 1.37455L5.2583 0.982265H6.96934H8.68037L8.9725 1.44132ZM11.9772 8.45239V13.8776L11.7853 14.2115C11.6768 14.3951 11.4598 14.6455 11.2928 14.754L10.984 14.9627H6.9276H2.86285L2.55403 14.7206C1.903 14.2282 1.9197 14.4702 1.9197 8.38562V2.98543L6.95264 3.00212L11.9772 3.02716V8.45239Z" fill="#ADBFCD"/>
<path d="M3.75599 5.04717C3.68922 5.07221 3.60575 5.13898 3.57236 5.18906C3.4889 5.30591 3.4889 12.6842 3.57236 12.8094C3.69756 13.0097 4.06481 13.0264 4.24843 12.8428C4.42371 12.6675 4.42371 12.6091 4.42371 8.99507C4.42371 5.43111 4.41536 5.31425 4.25678 5.15567C4.08985 4.98874 3.98134 4.9637 3.75599 5.04717Z" fill="#ADBFCD"/>
<path d="M6.69339 5.12204L6.50977 5.24723V8.99482V12.7424L6.69339 12.8676C6.94378 13.0429 7.06064 13.0345 7.26095 12.8342C7.41954 12.6756 7.42788 12.5588 7.42788 8.99482C7.42788 5.43086 7.41954 5.31401 7.26095 5.15542C7.06064 4.95511 6.94378 4.94676 6.69339 5.12204Z" fill="#ADBFCD"/>
<path d="M9.69925 5.12228L9.51562 5.24748V8.97837C9.51562 11.0316 9.54901 12.751 9.5824 12.8094C9.70759 13.0097 10.0748 13.0264 10.2585 12.8428C10.4337 12.6675 10.4337 12.6091 10.4337 8.99507C10.4337 5.43111 10.4254 5.31425 10.2668 5.15567C10.0665 4.95535 9.94964 4.94701 9.69925 5.12228Z" fill="#ADBFCD"/>
</svg>
