<svg width="11" height="20" viewBox="0 0 11 20" fill="none" xmlns="http://www.w3.org/2000/svg">
<path d="M10.9287 13.7074C10.9404 12.1252 10.3149 10.8738 9.06727 9.99009C8.10368 9.30968 6.93432 8.95476 5.8033 8.6137C3.44722 7.89943 2.76375 7.52321 2.76375 6.3965C2.76375 5.14147 4.39476 4.69493 5.79103 4.69493C6.80789 4.69493 7.97779 5.01109 8.70433 5.47964L10.1447 3.24887C9.19517 2.6333 7.8956 2.21342 6.61231 2.0831V0H3.95524V2.22918C1.59332 2.74876 0.105427 4.29246 0.105427 6.3965C0.105427 7.87005 0.717748 9.03865 1.92193 9.86289C2.83779 10.4921 3.95476 10.83 5.03375 11.1572C7.34475 11.8557 8.28321 12.2813 8.27253 13.691L8.27247 13.7014C8.27247 14.8845 6.70453 15.3051 5.36124 15.3051C4.09234 15.3051 2.71248 14.749 1.9303 13.9222L0 15.7481C0.990548 16.7957 2.42971 17.5364 3.95518 17.8267V20.0001H6.61231V17.8735C9.23688 17.4978 10.9261 15.9177 10.9287 13.7074Z" fill="white"/>
</svg>
