<svg width="16" height="20" viewBox="0 0 16 20" fill="none" xmlns="http://www.w3.org/2000/svg">
<path d="M1.8888 0.0830975C1.0552 0.309965 0.443183 0.879772 0.116072 1.73448L0 2.03521V9.97558C0 17.6047 0.00527599 17.9265 0.100244 18.2061C0.321835 18.8551 0.754467 19.3932 1.29262 19.6781C1.91518 20.0105 1.68832 20 7.50773 20C13.343 20 13.1425 20.0105 13.7334 19.6729C14.3401 19.3299 14.8255 18.644 14.9574 17.9476C15.0313 17.5572 15.0313 6.55674 14.9574 6.17159C14.9258 6.01331 14.8308 5.73368 14.7411 5.54375C14.5987 5.23246 14.3665 4.98449 12.1981 2.82134C9.70782 0.336346 9.59175 0.236101 8.99556 0.0830975C8.55766 -0.0276985 2.30561 -0.0276985 1.8888 0.0830975ZM7.52884 3.63384L7.54467 6.05024L7.74515 6.45649C7.97202 6.91551 8.22527 7.14765 8.72121 7.34814C9.01667 7.46421 9.06943 7.46948 11.412 7.48531L13.802 7.50114L13.7862 12.6558C13.7703 17.784 13.7703 17.8104 13.6595 18.0478C13.5276 18.3275 13.2638 18.5807 13.0053 18.6862C12.8523 18.7496 11.9501 18.7601 7.49191 18.7601H2.16316L1.90991 18.6335C1.625 18.4963 1.37176 18.1903 1.29262 17.8843C1.25569 17.7577 1.24513 15.0194 1.25041 9.88589L1.26624 2.08797L1.38231 1.86638C1.53004 1.59203 1.80439 1.37572 2.12622 1.2913C2.31088 1.24381 3.0548 1.22271 4.9436 1.22271L7.51301 1.21744L7.52884 3.63384ZM9.13801 1.52872C9.5812 1.88749 13.6226 5.98693 13.6543 6.10828L13.6806 6.22963H11.4436C9.00084 6.22963 8.98501 6.22963 8.83201 5.92889C8.72121 5.7073 8.68956 1.32296 8.80563 1.32296C8.84783 1.32296 8.99556 1.41792 9.13801 1.52872Z" fill="#ADBFCD"/>
<path d="M7.78446 16.1463C7.86888 16.0935 8.68665 15.3021 9.58885 14.3894C11.2244 12.7538 11.2402 12.7327 11.2402 12.5164C11.2402 12.1207 10.8182 11.7883 10.4752 11.9202C10.3961 11.9519 9.8421 12.4531 9.24591 13.0387L8.15378 14.1045L8.1274 11.6248C8.09574 8.83903 8.11157 8.92345 7.7106 8.8021C7.4468 8.72296 7.25686 8.77045 7.06693 8.96566L6.91392 9.11339L6.91392 11.6353L6.91392 14.1572L5.79014 13.044C4.57666 11.8358 4.49224 11.783 4.1493 11.9466C3.82747 12.0996 3.69029 12.4373 3.82747 12.7274C3.93299 12.9543 7.10913 16.1199 7.29907 16.1885C7.51011 16.2676 7.60508 16.2624 7.78446 16.1463Z" fill="#ADBFCD"/>
</svg>
