<svg width="16" height="16" viewBox="0 0 16 16" fill="none" xmlns="http://www.w3.org/2000/svg">
<path d="M12.7389 0.189281C12.3008 0.433602 5.19864 7.42627 4.92905 7.88121C4.72685 8.23506 4.14553 10.5098 4.06971 11.268C4.02758 11.6556 4.04443 11.7145 4.2382 11.8409C4.4404 11.9673 4.52465 11.9589 5.99901 11.6219C6.8415 11.4281 7.70926 11.1838 7.91989 11.0743C8.44223 10.8131 15.5781 3.64349 15.7972 3.16327C15.9994 2.72517 15.9994 2.00063 15.7972 1.57939C15.5697 1.09074 14.9547 0.458877 14.4745 0.22298C13.9016 -0.063467 13.2276 -0.0718918 12.7389 0.189281ZM14.0111 1.0402C14.3397 1.18342 14.8873 1.77316 14.9631 2.06803C15.0726 2.4977 14.921 2.87682 14.4323 3.39074C14.1712 3.66034 13.9184 3.87939 13.8679 3.87939C13.8173 3.87939 13.3792 3.48342 12.8906 2.99477L12.0144 2.11016L12.4693 1.63836C13.1349 0.955946 13.4803 0.821148 14.0111 1.0402ZM12.284 3.74459L13.1517 4.62078L10.321 7.42627L7.49864 10.2402L6.36128 10.5266C5.73784 10.6867 5.20707 10.7962 5.18179 10.771C5.15652 10.7541 5.26604 10.2065 5.42612 9.56619L5.71256 8.40356L8.47593 5.64019C10.0008 4.11528 11.2898 2.8684 11.3404 2.8684C11.3825 2.8684 11.8122 3.26437 12.284 3.74459Z" fill="#ADBFCD"/>
<path d="M2.00513 1.94119C1.48278 2.03386 0.791941 2.41298 0.530769 2.75841C0.421245 2.90163 0.252747 3.21335 0.160073 3.44925C0.0084249 3.85364 0 4.15694 0 8.90858C0 11.6804 0.0336996 14.0646 0.0758241 14.2078C0.269597 14.8818 0.783516 15.4547 1.47436 15.7749L1.8956 15.9686L6.6978 15.9939C10.0425 16.0108 11.6516 15.9939 12.0055 15.9265C12.8817 15.758 13.4798 15.3031 13.8337 14.5364C14.019 14.132 14.0275 14.0141 14.0527 11.7393C14.0696 10.1218 14.0527 9.31298 13.9853 9.19503C13.8758 8.97598 13.3872 8.95071 13.2187 9.16133C13.126 9.26243 13.0923 9.8269 13.0586 11.6635C13.0165 13.9467 13.008 14.0393 12.8227 14.3426C12.7132 14.5196 12.4857 14.7218 12.2667 14.8229C11.9212 14.9998 11.7949 14.9998 7.00109 14.9998C2.35897 14.9998 2.08095 14.9914 1.78608 14.8397C1.39853 14.6459 1.22161 14.4522 1.05311 14.0478C0.943589 13.7866 0.926739 13.0705 0.926739 8.93386C0.926739 3.82837 0.926739 3.78624 1.33113 3.34815C1.70183 2.93533 1.83663 2.91005 4.3641 2.86793C6.60512 2.8258 6.76519 2.81738 6.87472 2.66573C7.02637 2.45511 7.02637 2.26976 6.87472 2.05914C6.75677 1.90749 6.6304 1.89907 4.57472 1.88222C3.37839 1.88222 2.22417 1.90749 2.00513 1.94119Z" fill="#ADBFCD"/>
</svg>
