<svg width="19" height="14" viewBox="0 0 19 14" fill="none" xmlns="http://www.w3.org/2000/svg">
<path id="Vector" d="M1.88088 0.0684357C1.31384 0.185754 1.06943 0.322626 0.668589 0.733243C-0.0353223 1.46648 -0.0353223 1.4176 0.0233369 7.26396L0.0722194 12.4553L0.365515 12.9246C0.570823 13.2472 0.825011 13.4818 1.19652 13.697L1.73423 14H9.35991H16.9856L17.3767 13.7849C17.8362 13.5405 18.2077 13.1592 18.4619 12.6802C18.6379 12.3575 18.6476 12.0252 18.6476 7.00978C18.6476 1.74022 18.6476 1.68156 18.4326 1.29051C18.1686 0.791903 17.7775 0.420391 17.2789 0.19553C16.9172 0.0293296 16.3893 0.019553 9.55547 0C5.52753 0 2.06664 0.019553 1.88088 0.0684357ZM17.0834 1.35894C17.2301 1.47626 17.4158 1.71089 17.4842 1.88687C17.6602 2.29749 17.6602 3.59776 17.5038 3.80307C17.3571 3.97905 10.67 8.86732 10.1421 9.18019C9.65321 9.46366 9.06662 9.45391 8.51918 9.15086C8.14765 8.93573 4.79429 6.52095 2.00798 4.44832L1.09876 3.78352V2.89385C1.09876 1.93576 1.17697 1.70112 1.56803 1.36871L1.832 1.14386H9.32083H16.8096L17.0834 1.35894ZM2.17417 5.99302C2.63367 6.31564 4.15881 7.43017 5.56663 8.44695C7.64904 9.96227 8.21606 10.3338 8.62667 10.4315C9.26217 10.588 10.0443 10.5098 10.5429 10.2556C10.758 10.1382 12.4004 8.97488 14.1993 7.65505C16.3697 6.07123 17.494 5.30866 17.5429 5.3771C17.582 5.44553 17.6211 6.91201 17.6211 8.65226C17.6211 12.074 17.6015 12.2598 17.0834 12.6606L16.8096 12.8757H9.38924C1.24541 12.8757 1.55825 12.8952 1.24541 12.2891C1.11831 12.0545 1.09876 11.4581 1.09876 8.62293C1.09876 5.94413 1.12809 5.25 1.21608 5.31844C1.28451 5.35754 1.71468 5.66062 2.17417 5.99302Z" fill="#ADBFCD"/>
</svg>
