<svg width="159" height="214" viewBox="0 0 159 214" fill="none" xmlns="http://www.w3.org/2000/svg">
<path d="M18.0333 2.03301C11.2333 4.43301 3.36667 12.833 1.5 19.4997C-0.5 26.833 -0.5 186.7 1.5 194.033C3.5 201.233 12.4333 210.033 19.7667 211.9C23.6333 212.966 42.8333 213.366 83.1 213.1C147.9 212.7 145.1 213.1 153.9 202.3L158.033 197.1L158.433 130.566C158.7 66.9663 158.7 63.8997 156.167 59.0997C154.7 56.2997 142.033 42.5663 127.767 28.5663C106.967 7.89968 100.967 2.69968 96.7 1.49968C88.4333 -0.766987 24.8333 -0.366987 18.0333 2.03301ZM80.3 39.8997C80.7 69.0997 80.9667 70.033 89.9 76.5664C93.2333 79.0997 95.7667 79.3664 120.167 79.7664L146.7 80.1664V136.166V192.3L142.833 196.166L138.967 200.033H80.1667H21.3667L17.1 196.166L12.7 192.3V106.7V21.0997L17.1 17.233L21.3667 13.3663H50.5667H79.7667L80.3 39.8997ZM120.967 39.0997C134.433 52.433 145.367 64.1663 145.367 65.0997C145.367 66.2997 139.233 66.6997 120.833 66.6997C96.8333 66.6997 96.1667 66.5663 94.1667 63.7663C92.4333 61.3663 92.0333 56.433 92.0333 37.7663C92.0333 16.833 92.3 14.6997 94.3 14.6997C95.6333 14.6997 107.633 25.633 120.967 39.0997Z" fill="#ADBFCD"/>
<path d="M53.0992 101.501C48.6992 104.034 50.4326 109.101 60.9659 123.634C66.5659 131.634 71.2326 138.967 71.2326 140.034C71.2326 141.101 66.5659 148.434 60.9659 156.434C54.8326 164.967 50.6992 172.034 50.6992 174.034C50.6992 177.501 54.9659 180.701 58.0326 179.501C58.9659 179.234 64.0326 172.834 69.3659 165.501C74.6992 158.034 79.3659 152.034 79.7659 152.034C80.2992 152.034 84.8326 158.034 90.0326 165.367C95.0992 172.701 100.433 179.101 101.766 179.501C104.566 180.434 109.366 176.701 109.366 173.501C109.366 172.301 104.566 164.434 98.6992 156.034C92.8326 147.634 88.0326 140.434 88.0326 140.034C88.0326 139.634 92.8326 132.434 98.6992 124.034C104.566 115.634 109.366 107.634 109.366 106.434C109.366 103.501 103.766 99.7674 101.099 100.701C100.033 101.101 95.0992 107.501 89.8992 114.701C84.8326 122.034 80.2992 128.034 79.8992 128.034C79.4992 128.034 75.6326 123.101 71.3659 116.967C58.9659 99.5007 57.8992 98.5674 53.0992 101.501Z" fill="#ADBFCD"/>
</svg>
