<svg width="13" height="16" viewBox="0 0 13 16" fill="none" xmlns="http://www.w3.org/2000/svg">
<path d="M1.51104 0.0664778C0.844158 0.247972 0.354547 0.703818 0.0928574 1.38759L0 1.62817V7.98046C0 14.0837 0.00422079 14.3412 0.080195 14.5649C0.257468 15.0841 0.603573 15.5146 1.03409 15.7425C1.53215 16.0084 1.35065 16 6.00619 16C10.6744 16 10.514 16.0084 10.9867 15.7383C11.4721 15.4639 11.8604 14.9152 11.9659 14.3581C12.025 14.0457 12.025 5.24539 11.9659 4.93727C11.9406 4.81065 11.8646 4.58695 11.7929 4.435C11.6789 4.18597 11.4932 3.98759 9.75847 2.25707C7.76626 0.269076 7.6734 0.188881 7.19645 0.0664778C6.84612 -0.0221577 1.84449 -0.0221577 1.51104 0.0664778ZM6.02307 2.90707L6.03573 4.84019L6.19612 5.1652C6.37762 5.5324 6.58021 5.71812 6.97697 5.87851C7.21333 5.97137 7.25554 5.97559 9.12957 5.98825L11.0416 6.00091L11.0289 10.1246C11.0163 14.2272 11.0163 14.2483 10.9276 14.4383C10.8221 14.662 10.6111 14.8646 10.4043 14.949C10.2818 14.9996 9.56009 15.0081 5.99352 15.0081H1.73052L1.52793 14.9068C1.3 14.797 1.09741 14.5522 1.03409 14.3074C1.00455 14.2061 0.996107 12.0155 1.00033 7.90871L1.01299 1.67038L1.10585 1.49311C1.22403 1.27362 1.44351 1.10057 1.70098 1.03304C1.84871 0.995052 2.44384 0.978169 3.95488 0.978169L6.01041 0.973948L6.02307 2.90707ZM7.31041 1.22298C7.66496 1.50999 10.8981 4.78955 10.9234 4.88662L10.9445 4.9837H9.1549C7.20067 4.9837 7.18801 4.9837 7.06561 4.74312C6.97697 4.56584 6.95164 1.05836 7.0445 1.05836C7.07827 1.05836 7.19645 1.13434 7.31041 1.22298Z" fill="#2A353A"/>
<path d="M6.22757 12.9162C6.2951 12.874 6.94932 12.2409 7.67108 11.5107C8.97953 10.2023 8.99219 10.1854 8.99219 10.0123C8.99219 9.69578 8.65452 9.42987 8.38017 9.53539C8.31686 9.56071 7.87368 9.96169 7.39673 10.4302L6.52302 11.2828L6.50192 9.29902C6.47659 7.07045 6.48926 7.13798 6.16848 7.0409C5.95744 6.97759 5.80549 7.01558 5.65354 7.17174L5.53114 7.28993L5.53114 9.30747L5.53114 11.325L4.63211 10.4344C3.66133 9.46786 3.59379 9.42565 3.31944 9.55649C3.06197 9.6789 2.95223 9.94903 3.06197 10.1812C3.14639 10.3627 5.68731 12.8951 5.83926 12.95C6.00809 13.0133 6.08406 13.0091 6.22757 12.9162Z" fill="#2A353A"/>
</svg>
