<?xml version="1.0" standalone="no"?>
<!DOCTYPE svg PUBLIC "-//W3C//DTD SVG 20010904//EN"
 "http://www.w3.org/TR/2001/REC-SVG-20010904/DTD/svg10.dtd">
<svg version="1.0" xmlns="http://www.w3.org/2000/svg"
 width="35" height="35" viewBox="0 0 512.000000 512.000000"
 preserveAspectRatio="xMidYMid meet">

<g transform="translate(0.000000,512.000000) scale(0.100000,-0.100000)"
fill="#ffffff" stroke="none">

<path d="M2711 3826 c-94 -31 -184 -116 -211 -200 -31 -98 5 -225 85 -295 176
-154 471 -88 541 121 62 188 -81 376 -295 385 -47 2 -93 -3 -120 -11z"/>
<path d="M2381 2969 c-69 -12 -342 -105 -357 -122 -11 -12 -47 -137 -41 -143
1 -2 32 6 67 17 140 44 270 24 304 -47 35 -75 18 -180 -94 -561 -86 -294 -101
-364 -102 -478 -1 -74 3 -99 21 -142 30 -67 103 -136 189 -176 60 -28 78 -31
183 -35 141 -5 207 8 394 76 l130 48 19 67 c11 37 17 69 14 72 -3 3 -25 -2
-49 -11 -65 -25 -233 -25 -277 -1 -104 57 -98 153 42 634 88 301 96 338 97
455 1 167 -53 253 -201 321 -58 27 -77 31 -175 33 -60 2 -135 -1 -164 -7z"/>
</g>
</svg>
