<svg width="13" height="10" viewBox="0 0 13 10" fill="none" xmlns="http://www.w3.org/2000/svg">
<path fill-rule="evenodd" clip-rule="evenodd" d="M5.3048 9.75292C5.38285 9.82121 5.47378 9.87319 5.57222 9.90582C5.67066 9.93845 5.77464 9.95106 5.87803 9.94291C5.98142 9.93476 6.08213 9.90601 6.17425 9.85837C6.26637 9.81072 6.34802 9.74513 6.41442 9.66546C6.48081 9.58578 6.5306 9.49364 6.56086 9.39444C6.59111 9.29524 6.60122 9.19099 6.5906 9.08783C6.57997 8.98466 6.54881 8.88467 6.49897 8.79372C6.44912 8.70277 6.38159 8.62271 6.30035 8.55825L2.85479 5.6867L11.7261 5.6867C11.9324 5.6867 12.1302 5.60475 12.2761 5.45889C12.422 5.31303 12.5039 5.1152 12.5039 4.90892C12.5039 4.70264 12.422 4.50481 12.2761 4.35895C12.1302 4.21308 11.9324 4.13114 11.7261 4.13114L2.99635 4.13114L6.30035 1.37781C6.45898 1.24579 6.55867 1.05616 6.57748 0.850643C6.5963 0.645123 6.5327 0.440547 6.40068 0.281918C6.26866 0.123289 6.07904 0.0236021 5.87352 0.00478612C5.668 -0.0140308 5.46342 0.0495659 5.30479 0.181585L0.28035 4.3707C0.192818 4.44369 0.122398 4.53503 0.0740733 4.63825C0.0257488 4.74147 0.000699552 4.85406 0.000699562 4.96803C0.000699572 5.082 0.0257488 5.19458 0.0740734 5.29781C0.122398 5.40103 0.192818 5.49237 0.28035 5.56536L5.3048 9.75292Z" fill="#043376"/>
</svg>
