<svg width="23" height="20" viewBox="0 0 23 20" fill="none" xmlns="http://www.w3.org/2000/svg">
<path d="M2.31737 0.216762C1.47339 0.474247 0.48637 1.41836 0.200276 2.21942C0.0429245 2.66286 1.0449e-05 4.22208 1.0449e-05 10.0012C1.0449e-05 18.0976 -0.0142942 17.926 1.01564 18.9559C2.0885 20.0431 1.97406 20.0288 11.6726 19.9858C20.0552 19.9429 20.1839 19.9429 20.7418 19.6425C21.5143 19.2277 22.0865 18.6412 22.4012 17.9403C22.6443 17.411 22.673 16.8817 22.673 11.4316C22.673 5.98155 22.6443 5.45228 22.4012 4.92301C22.0865 4.22208 21.5143 3.63558 20.7418 3.22075C20.1839 2.92035 20.0409 2.92035 12.4594 2.87744C5.37858 2.83452 4.73486 2.86313 4.49168 3.0777C4.14837 3.3924 4.14837 3.73572 4.47738 4.03612C4.72056 4.25069 5.4644 4.2793 12.2448 4.2793C19.2684 4.2793 19.7691 4.2936 20.2412 4.55108C20.5129 4.69413 20.8706 4.98023 21.0279 5.1948C21.2997 5.58102 21.314 5.78129 21.314 11.4316C21.314 17.082 21.2997 17.2823 21.0279 17.6685C20.8706 17.8831 20.5129 18.1692 20.2412 18.3265C19.7691 18.5697 19.3113 18.584 11.2006 18.5554C2.77512 18.5125 2.66068 18.5125 2.26015 18.2121C2.04558 18.0404 1.73088 17.6971 1.57353 17.4253C1.30174 16.9533 1.28743 16.6815 1.28743 10.0012C1.28743 3.32088 1.30174 3.04909 1.57353 2.57704C1.73088 2.30525 2.04558 1.96193 2.26015 1.79028C2.66068 1.48988 2.78943 1.48988 11.7728 1.41836C16.7794 1.37544 20.9707 1.28961 21.0708 1.2324C21.3426 1.04643 21.2854 0.30259 20.9707 0.130934C20.7847 0.0451058 17.6806 -0.0121129 11.8443 0.00219175C4.44877 0.00219175 2.88956 0.0451058 2.31737 0.216762Z" fill="white"/>
<path d="M16.3786 10.717C15.7778 11.3178 16.2213 12.4336 17.0653 12.4336C17.5373 12.4336 17.709 12.3192 17.9378 11.89C18.4671 10.8887 17.1654 9.93027 16.3786 10.717Z" fill="white"/>
</svg>
