<svg width="12" height="12" viewBox="0 0 12 12" fill="none" xmlns="http://www.w3.org/2000/svg">
<path fill-rule="evenodd" clip-rule="evenodd" d="M5.27734 0.75C5.27734 0.551088 5.35351 0.360322 5.48907 0.21967C5.62464 0.0790176 5.80851 0 6.00024 0C6.19196 0 6.37583 0.0790176 6.5114 0.21967C6.64697 0.360322 6.72313 0.551088 6.72313 0.75V11.25C6.72313 11.4489 6.64697 11.6397 6.5114 11.7803C6.37583 11.921 6.19196 12 6.00024 12C5.80851 12 5.62464 11.921 5.48907 11.7803C5.35351 11.6397 5.27734 11.4489 5.27734 11.25V0.75Z" fill="#2A353A"/>
<path fill-rule="evenodd" clip-rule="evenodd" d="M0 6.00024C0 5.80851 0.0790176 5.62464 0.21967 5.48907C0.360322 5.35351 0.551088 5.27734 0.75 5.27734H11.25C11.4489 5.27734 11.6397 5.35351 11.7803 5.48907C11.921 5.62464 12 5.80851 12 6.00024C12 6.19196 11.921 6.37583 11.7803 6.5114C11.6397 6.64697 11.4489 6.72313 11.25 6.72313H0.75C0.551088 6.72313 0.360322 6.64697 0.21967 6.5114C0.0790176 6.37583 0 6.19196 0 6.00024Z" fill="#2A353A"/>
</svg>
