<svg width="16" height="16" viewBox="0 0 16 16" fill="none" xmlns="http://www.w3.org/2000/svg">
<g id="Group 10603">
<path id="Vector" d="M3.46824 0.0844421C3.00136 0.192825 2.46779 0.626352 2.19266 1.11824L1.95922 1.5351V3.76111V5.98712L1.65075 6.03715C1.484 6.07049 1.15052 6.21224 0.908744 6.35393C0.566924 6.5624 0.408519 6.7291 0.233439 7.07095L0 7.51283V9.61379C0 10.7643 0.0333484 11.7481 0.0666971 11.8064C0.191754 12.0065 0.558587 12.0232 0.742006 11.8398C0.908744 11.673 0.917085 11.5813 0.917085 9.70545C0.917085 8.11311 0.942096 7.68791 1.04214 7.49614C1.30893 6.97922 1.04214 6.99591 7.98694 6.99591H14.3148L14.5483 7.17931C14.9651 7.50446 15.0068 7.73794 15.0068 9.82219V11.7481L15.2152 11.8814C15.482 12.0565 15.8072 11.9398 15.8822 11.6397C15.9155 11.5313 15.9239 10.5475 15.9072 9.44702C15.8822 7.69623 15.8655 7.4211 15.7238 7.16268C15.3987 6.55402 14.8818 6.1622 14.2398 6.04548L13.923 5.98712V4.0279C13.923 2.53556 13.898 2.01032 13.8063 1.80189C13.6645 1.4684 12.3806 0.201162 12.0638 0.0844421C11.7637 -0.0322774 3.93512 -0.0239403 3.46824 0.0844421ZM12.3389 1.57678L13.0059 2.23542V4.11961V5.99546H7.96193H2.91799V3.86949C2.91799 1.57678 2.95134 1.36836 3.35986 1.15159C3.73503 0.943165 4.1102 0.926489 7.85356 0.918154L11.6636 0.909819L12.3389 1.57678Z" fill="#ADBFCD"/>
<path id="Vector_2" d="M13.2561 7.80253C12.956 7.91089 12.7559 8.19439 12.7559 8.48615C12.7642 8.84469 12.8976 9.0364 13.2061 9.16146C13.6646 9.33653 14.1732 8.97806 14.1732 8.48615C14.1732 8.06096 13.6313 7.66077 13.2561 7.80253Z" fill="#ADBFCD"/>
<path id="Vector_3" d="M2.59261 10.1039C2.4342 10.1623 2.22577 10.3124 2.13406 10.4374C1.96733 10.6626 1.95898 10.7709 1.95898 12.9886C1.95898 15.0812 1.97566 15.3147 2.10905 15.5314C2.41753 15.9983 2.37584 15.9983 7.97002 15.9983C13.6976 15.9983 13.5726 16.0066 13.806 15.448C13.9811 15.0312 13.9727 10.921 13.7977 10.5458C13.5476 10.0123 13.8144 10.0373 8.08677 10.0206C4.18499 10.0039 2.80104 10.0289 2.59261 10.1039ZM13.0057 12.9969V14.9978H7.96171H2.91776V12.9969V10.996H7.96171H13.0057V12.9969Z" fill="#ADBFCD"/>
</g>
</svg>
