<svg width="17" height="18" viewBox="0 0 17 18" fill="none" xmlns="http://www.w3.org/2000/svg">
<path d="M9.09279 1.3955L15.0379 4.36805C15.2855 4.4911 15.4939 4.68078 15.6396 4.91577C15.7853 5.15077 15.8626 5.42175 15.8628 5.69826V12.7804C15.8626 13.0569 15.7853 13.3278 15.6396 13.5628C15.4939 13.7978 15.2855 13.9875 15.0379 14.1106L9.09279 17.0831C8.8863 17.1864 8.65858 17.2402 8.42768 17.2402C8.19679 17.2402 7.96906 17.1864 7.76258 17.0831L1.81749 14.1106C1.57012 13.9859 1.3625 13.7946 1.21806 13.5583C1.07362 13.3219 0.998108 13.0499 1.00004 12.7729V5.69826C1.00018 5.42175 1.07746 5.15077 1.22318 4.91577C1.36891 4.68078 1.57729 4.4911 1.82492 4.36805L7.77001 1.3955C7.97553 1.29338 8.2019 1.24023 8.4314 1.24023C8.66089 1.24023 8.88727 1.29338 9.09279 1.3955Z" stroke="#2A353A" stroke-linecap="round" stroke-linejoin="round"/>
<path d="M1.23828 4.89648L8.43184 8.49326L15.6254 4.89648" stroke="#2A353A" stroke-linecap="round" stroke-linejoin="round"/>
<path d="M8.43164 17.2315V8.49219" stroke="#2A353A" stroke-linecap="round" stroke-linejoin="round"/>
<path d="M4.71484 2.91992L12.1462 6.6356" stroke="#2A353A" stroke-linecap="round" stroke-linejoin="round"/>
</svg>
