<svg width="14" height="16" viewBox="0 0 14 16" fill="none" xmlns="http://www.w3.org/2000/svg">
<path d="M6.12886 0.125286C4.76689 0.495822 3.95572 1.71759 3.95572 3.39001V3.98086L2.46356 4.0109C0.831202 4.04095 0.680985 4.09102 0.210304 4.73195C0.0100145 5.00234 0 5.12251 0 9.37867C0 13.6448 0.0100145 13.765 0.210304 14.2157C0.49071 14.8165 1.14165 15.4675 1.74252 15.7479C2.19317 15.9482 2.34339 15.9582 6.65963 15.9882C11.8571 16.0283 12.0174 16.0083 12.8786 15.2271C13.86 14.3458 13.82 14.5962 13.85 9.49884C13.8701 5.21264 13.8701 5.03238 13.6798 4.72193C13.2992 4.11105 13.0889 4.04095 11.4065 4.0109L9.88429 3.97085L9.84423 3.00946C9.79416 1.84778 9.6139 1.42717 8.87283 0.766213C8.52232 0.44575 8.20186 0.26549 7.78125 0.145315C7.10027 -0.04496 6.7798 -0.04496 6.12886 0.125286ZM8.08169 1.34705C8.70258 1.77768 8.96296 2.3485 8.96296 3.25982V3.99088H6.90999H4.85702V3.54022C4.85702 1.91788 5.72828 0.93646 7.09025 1.01657C7.52087 1.0366 7.76122 1.11672 8.08169 1.34705ZM3.95572 6.32425C3.95572 7.536 3.97575 7.68622 4.15601 7.84645C4.32626 7.99667 4.39636 8.00668 4.60666 7.91655C4.85702 7.79638 4.85702 7.79638 4.85702 6.39435V4.99232H6.90999H8.96296V6.32425C8.96296 7.536 8.98299 7.68622 9.16325 7.84645C9.3335 7.99667 9.4036 8.00668 9.6139 7.91655C9.86426 7.79638 9.86426 7.79638 9.86426 6.39435V4.99232H11.3063C12.4079 4.99232 12.7685 5.02237 12.8586 5.13253C12.9487 5.23267 12.9688 6.40436 12.9487 9.47881L12.9187 13.6849L12.6182 14.1155C12.458 14.3458 12.1175 14.6463 11.8772 14.7765L11.4365 15.0068H6.97008C2.84411 15.0068 2.47358 14.9868 2.09303 14.8165C1.55224 14.5662 1.08156 13.9853 0.951376 13.3845C0.891289 13.094 0.851231 11.3816 0.851231 9.16836C0.851231 5.95371 0.87126 5.40292 1.01146 5.21264C1.15167 5.00234 1.23178 4.99232 2.56371 4.99232H3.95572V6.32425Z" fill="#2A353A"/>
</svg>
