<svg width="13" height="10" viewBox="0 0 13 10" fill="none" xmlns="http://www.w3.org/2000/svg">
<path fill-rule="evenodd" clip-rule="evenodd" d="M7.19911 0.192395C7.12105 0.124108 7.03013 0.0721214 6.93169 0.0394936C6.83324 0.00686582 6.72927 -0.00574436 6.62588 0.00240495C6.52249 0.0105543 6.42177 0.0392984 6.32966 0.0869465C6.23754 0.134595 6.15588 0.200184 6.08949 0.279857C6.02309 0.359529 5.97331 0.451675 5.94305 0.550874C5.91279 0.650073 5.90268 0.754321 5.91331 0.857485C5.92394 0.960649 5.95509 1.06065 6.00494 1.15159C6.05478 1.24254 6.12231 1.3226 6.20356 1.38706L9.64911 4.25862H0.777778C0.571498 4.25862 0.373667 4.34056 0.227806 4.48642C0.0819442 4.63228 0 4.83012 0 5.0364C0 5.24267 0.0819442 5.44051 0.227806 5.58637C0.373667 5.73223 0.571498 5.81417 0.777778 5.81417H9.50756L6.20356 8.56751C6.04493 8.69952 5.94524 8.88915 5.92642 9.09467C5.90761 9.30019 5.9712 9.50477 6.10322 9.66339C6.23524 9.82202 6.42487 9.92171 6.63039 9.94053C6.83591 9.95934 7.04048 9.89575 7.19911 9.76373L12.2236 5.57462C12.3111 5.50162 12.3815 5.41028 12.4298 5.30706C12.4782 5.20384 12.5032 5.09126 12.5032 4.97728C12.5032 4.86331 12.4782 4.75073 12.4298 4.64751C12.3815 4.54428 12.3111 4.45295 12.2236 4.37995L7.19911 0.192395Z" fill="#043376"/>
</svg>
