<svg width="19" height="16" viewBox="0 0 19 16" fill="none" xmlns="http://www.w3.org/2000/svg">
<path d="M0.173656 0.209473C0.0021439 0.403852 -0.0207244 0.964125 0.013578 7.14999L0.0478804 13.8847L0.310865 14.4335C0.459509 14.7308 0.76823 15.131 0.996913 15.314C1.8316 16 1.80874 16 10.1328 16C15.1524 16 17.8051 15.9543 17.9537 15.8857C18.2053 15.7484 18.251 15.1539 18.0338 15.0052C17.9537 14.9595 14.352 14.8909 10.0299 14.8566C2.27753 14.7994 2.17463 14.7994 1.85447 14.5593C1.68296 14.4221 1.43141 14.1477 1.30563 13.9304C1.08839 13.5531 1.07695 13.3015 1.04265 6.90987C1.01978 0.861217 0.996913 0.266643 0.825401 0.129434C0.562416 -0.0649471 0.402338 -0.042078 0.173656 0.209473Z" fill="#2A353A"/>
<path d="M11.6201 3.62854C11.3686 3.90296 11.38 4.14308 11.6316 4.37176C11.8145 4.53184 12.1232 4.56614 13.5525 4.56614H15.2562L13.3467 6.47564L11.4258 8.39657L9.79068 6.76149C8.88739 5.86963 8.07556 5.13785 7.98409 5.13785C7.75541 5.13785 3.42188 9.49425 3.42188 9.72293C3.42188 9.94018 3.77633 10.2832 3.99358 10.2832C4.08505 10.2832 4.99978 9.43708 6.04029 8.39657L7.93835 6.52138L9.61917 8.11072C10.5339 8.99115 11.3572 9.7115 11.4372 9.7115C11.5172 9.7115 12.5806 8.72816 13.7926 7.51614L15.9994 5.32079V7.03591C15.9994 8.61382 16.0223 8.7739 16.2281 8.96828C16.4225 9.13979 16.5025 9.15122 16.7426 9.04832L17.0285 8.91111V6.29269C17.0285 3.81149 17.0171 3.65141 16.8112 3.53707C16.674 3.46846 15.6221 3.42273 14.1928 3.42273C12.0203 3.42273 11.7917 3.4456 11.6201 3.62854Z" fill="#2A353A"/>
</svg>
