<svg width="20" height="20" viewBox="0 0 20 20" fill="none" xmlns="http://www.w3.org/2000/svg">
<g id="Icon">
<path id="Icon_2" fill-rule="evenodd" clip-rule="evenodd" d="M14.7735 10.6559C14.8002 10.4426 14.8202 10.2293 14.8202 10.0026C14.8202 9.77594 14.8002 9.5626 14.7735 9.34927L16.1802 8.24927C16.3069 8.14927 16.3402 7.96927 16.2602 7.8226L14.9269 5.51594C14.8469 5.36927 14.6669 5.31594 14.5202 5.36927L12.8602 6.03594C12.5135 5.76927 12.1402 5.54927 11.7335 5.3826L11.4802 3.61594C11.4602 3.45594 11.3202 3.33594 11.1535 3.33594H8.48687C8.32021 3.33594 8.18021 3.45594 8.16021 3.61594L7.90687 5.3826C7.50021 5.54927 7.12687 5.77594 6.78021 6.03594L5.12021 5.36927C4.96687 5.30927 4.79354 5.36927 4.71354 5.51594L3.38021 7.8226C3.29354 7.96927 3.33354 8.14927 3.46021 8.24927L4.86687 9.34927C4.84021 9.5626 4.82021 9.7826 4.82021 10.0026C4.82021 10.2226 4.84021 10.4426 4.86687 10.6559L3.46021 11.7559C3.33354 11.8559 3.30021 12.0359 3.38021 12.1826L4.71354 14.4893C4.79354 14.6359 4.97354 14.6893 5.12021 14.6359L6.78021 13.9693C7.12687 14.2359 7.50021 14.4559 7.90687 14.6226L8.16021 16.3893C8.18021 16.5493 8.32021 16.6693 8.48687 16.6693H11.1535C11.3202 16.6693 11.4602 16.5493 11.4802 16.3893L11.7335 14.6226C12.1402 14.4559 12.5135 14.2293 12.8602 13.9693L14.5202 14.6359C14.6735 14.6959 14.8469 14.6359 14.9269 14.4893L16.2602 12.1826C16.3402 12.0359 16.3069 11.8559 16.1802 11.7559L14.7735 10.6559ZM9.8202 12.3359C8.53354 12.3359 7.48687 11.2893 7.48687 10.0026C7.48687 8.71594 8.53354 7.66927 9.8202 7.66927C11.1069 7.66927 12.1535 8.71594 12.1535 10.0026C12.1535 11.2893 11.1069 12.3359 9.8202 12.3359Z" fill="#ADBFCD"/>
</g>
</svg>
