<svg width="14" height="16" viewBox="0 0 14 16" fill="none" xmlns="http://www.w3.org/2000/svg">
<path d="M4.42067 2.43104C3.08976 3.76195 1.99902 4.92273 1.99902 5.01279C1.99902 5.20292 2.30923 5.50313 2.49936 5.50313C2.57942 5.50313 3.51005 4.64254 4.57077 3.58182L6.50208 1.66052V6.16358C6.50208 10.5566 6.51209 10.6766 6.70222 10.8568C6.87233 11.0069 6.94238 11.0169 7.15252 10.9268L7.40269 10.8067V6.30367C7.40269 2.79129 7.43271 1.80061 7.52278 1.80061C7.59282 1.80061 8.49344 2.64118 9.52414 3.67188C11.3254 5.4631 11.4054 5.53315 11.6456 5.42307C11.8357 5.34302 11.9058 5.23294 11.9058 5.0228C11.9058 4.79265 11.4955 4.34234 9.52414 2.371C8.21324 1.07012 7.07247 -0.000610165 6.99242 -0.000610165C6.91236 -0.000610165 5.76158 1.09013 4.42067 2.43104Z" fill="#2A353A"/>
<path d="M0.157839 10.1969C-0.00226955 10.377 -0.0222831 10.5972 0.017744 12.2783C0.0477644 14.0095 0.067778 14.1996 0.277921 14.6399C0.408009 14.9001 0.678193 15.2504 0.878329 15.4105C1.59882 16.0109 1.76893 16.0209 7.22264 15.9909C12.0459 15.9608 12.166 15.9608 12.5563 15.7507C13.0966 15.4605 13.4969 15.0502 13.7171 14.5599C13.8772 14.2197 13.9072 13.8894 13.9072 12.1783V10.2069L13.657 10.0869C13.4569 9.99679 13.3768 10.0068 13.2167 10.1469C13.0366 10.307 13.0166 10.4971 12.9866 12.2083C12.9565 14.3097 12.9165 14.4398 12.206 14.8301C11.8758 15.0002 11.5756 15.0102 6.88241 14.9902C2.0091 14.9602 1.90903 14.9602 1.62884 14.75C1.01842 14.2897 0.948376 14.0295 0.918356 12.0582C0.888336 10.5372 0.858315 10.237 0.728227 10.1269C0.49807 9.95676 0.357975 9.97678 0.157839 10.1969Z" fill="#2A353A"/>
</svg>
