<svg width="26" height="18" viewBox="0 0 26 18" fill="none" xmlns="http://www.w3.org/2000/svg">
<path d="M9.7931 0.0633411C9.00792 0.181658 7.77098 0.644163 7.0826 1.08516C5.43693 2.11773 4.27529 3.89247 3.9311 5.89308C3.84505 6.35559 3.759 6.7428 3.74825 6.76431C3.72674 6.77507 3.43632 6.90414 3.11365 7.04397C2.33922 7.39891 1.00547 8.71114 0.61826 9.51784C-0.521873 11.8304 -0.0486106 14.67 1.73688 16.3586C2.43602 17.0255 3.04911 17.3805 4.0279 17.7139L4.78082 17.9613L12.7402 17.9935C18.3549 18.0151 20.9148 17.9828 21.4311 17.8967C22.8186 17.6709 24.0878 16.8427 24.8837 15.6272C25.314 14.9819 25.7012 13.6481 25.7012 12.8092C25.7012 11.2496 24.8407 9.60389 23.4962 8.63585L23.0767 8.32393L23.066 7.17304C23.0552 6.25878 23.0122 5.90383 22.8293 5.45208C22.3453 4.25817 21.3127 3.24711 20.1619 2.83838C19.4412 2.59099 18.0107 2.55873 17.2577 2.7846L16.7415 2.94594L15.924 2.11773C15.0313 1.20347 13.8696 0.515093 12.7618 0.224682C11.9443 0.00956154 10.6213 -0.065731 9.7931 0.0633411ZM12.5144 1.45086C13.5684 1.7843 14.3644 2.30058 15.2894 3.25786C16.2897 4.29044 16.5156 4.37649 17.4298 4.0323C18.3226 3.69886 19.3982 3.7634 20.2049 4.19363C20.8825 4.57009 21.2267 4.95731 21.5924 5.74249C21.8398 6.28029 21.8505 6.40936 21.7968 7.45269C21.7215 8.80795 21.7968 9.01231 22.5712 9.50708C23.2488 9.94808 23.7544 10.5074 24.0985 11.185C24.475 11.9594 24.518 13.4115 24.1954 14.272C23.8942 15.0679 23.195 15.8424 22.3453 16.3049L21.6677 16.6706H13.1059H4.55495L3.74825 16.2726C0.29558 14.5624 0.381628 9.68994 3.87732 8.03352C4.69477 7.65706 5.04972 7.26984 5.04972 6.77507C5.04972 6.23727 5.44769 4.81748 5.77037 4.21515C6.15759 3.48374 7.31923 2.33285 8.06139 1.93488C9.40589 1.22499 11.1484 1.03138 12.5144 1.45086Z" fill="#043376"/>
<path d="M10.8343 6.90591C9.36078 8.36872 9.02734 8.75594 9.02734 9.00332C9.02734 9.19693 9.11339 9.35827 9.28549 9.46583C9.52212 9.62717 9.5759 9.62717 9.85555 9.47659C10.0169 9.39054 10.587 8.88501 11.114 8.34721C11.641 7.82017 12.1143 7.40068 12.1681 7.43295C12.2111 7.46522 12.2541 8.90652 12.2541 10.649C12.2541 13.7897 12.2541 13.8112 12.4908 13.9726C12.7919 14.1877 12.9102 14.1877 13.1791 13.9941C13.3728 13.8435 13.3835 13.6499 13.4373 10.5737L13.4911 7.31464L14.6957 8.47628C15.7176 9.46583 15.9434 9.62717 16.1478 9.57339C16.4597 9.47659 16.6641 9.21844 16.6641 8.93879C16.6641 8.64838 13.1254 5.10966 12.8457 5.10966C12.7274 5.10966 11.8669 5.88409 10.8343 6.90591Z" fill="#043376"/>
</svg>
