<svg width="44" height="78" viewBox="0 0 44 78" fill="none" xmlns="http://www.w3.org/2000/svg">
<path d="M13.237 1.19443C12.4927 1.47728 11.7036 2.17696 11.4059 2.84687C11.1975 3.32325 11.1082 4.03781 11.0337 5.79446L10.9295 8.11681L11.3166 8.50388C11.6441 8.83139 11.8376 8.89093 12.5969 8.89093C13.4156 8.89093 13.505 8.92071 13.5794 9.21844C13.6241 9.41197 13.6389 12.166 13.6241 15.3667L13.5794 21.1726L9.93211 21.247C6.58257 21.3215 6.22529 21.3512 5.48094 21.6639C3.44144 22.5273 1.99742 24.0606 1.31262 26.115C1.01489 27.0231 1 27.306 1 36.6996C1 44.009 1.04466 46.3909 1.17864 46.5249C1.43172 46.778 1.98253 46.7482 2.2505 46.4654C2.45891 46.2569 2.48869 45.4233 2.48869 39.543V32.8588H5.5256C8.1308 32.8588 8.69651 32.8141 9.51528 32.561C10.7211 32.1889 11.5697 31.4743 12.1205 30.3578C12.5373 29.5092 12.5373 29.4795 12.582 26.115L12.6415 22.7357H18.0455C23.896 22.7357 23.9258 22.7357 23.9258 21.9318C23.9258 21.2619 23.8067 21.247 19.3555 21.247H15.1425V15.069V8.89093H15.4998C16.5717 8.89093 17.8668 8.01261 18.4325 6.91098L18.7154 6.36017H21.9011H25.0869L25.474 7.01518C26.0695 8.02749 26.7692 8.54853 27.7963 8.77184L28.6896 8.95048V15.0987V21.247H27.6624C26.7543 21.247 26.5905 21.2917 26.397 21.5745C26.0992 22.0063 26.0992 22.0807 26.4565 22.438C26.7245 22.7059 26.9478 22.7357 28.9873 22.7357H31.2203V25.5344C31.2203 27.0827 31.2948 28.7351 31.3841 29.2115C31.6967 30.9235 32.709 32.0698 34.3614 32.5759C35.1207 32.8141 35.7459 32.8588 38.3065 32.8588H41.3434V51.6162C41.3434 72.2345 41.4029 70.9989 40.4502 71.4902C40.212 71.6093 39.7952 71.7135 39.5272 71.7135C39.0657 71.7135 39.0061 71.6688 38.8424 71.0584C38.6042 70.1503 37.6812 69.0487 36.7136 68.5128C35.9841 68.1109 35.7757 68.0662 34.5699 68.0662C33.4533 68.0662 33.111 68.1257 32.5601 68.4086C31.3543 69.0338 30.5653 70.0313 30.1187 71.4604C30.0443 71.6986 29.5977 71.7135 23.4047 71.7135C19.1024 71.7135 16.661 71.773 16.4674 71.8623C16.1399 72.041 16.0804 72.7853 16.3781 73.0384C16.527 73.1426 18.6558 73.217 23.3303 73.2319L30.074 73.2766L30.2527 73.887C31.1905 77.043 35.4184 78.0553 37.7557 75.6734C38.1129 75.3161 38.5298 74.6611 38.7382 74.1549L39.0955 73.2766L39.8845 73.1873C40.8075 73.0831 41.4029 72.8002 41.9686 72.2047C42.8916 71.2371 42.8321 72.7555 42.8321 48.9664C42.8321 29.8367 42.8023 27.1571 42.5939 26.383C42.0282 24.1797 40.2418 22.3189 37.9641 21.5596C37.1304 21.2768 36.6838 21.247 33.6767 21.247H30.3271V15.069V8.89093H31.1905C32.6941 8.89093 32.709 8.86115 32.709 5.94333C32.709 3.84428 32.6643 3.36791 32.4262 2.84687C32.0986 2.11741 31.265 1.40284 30.4909 1.16465C29.6721 0.92646 13.9218 0.956238 13.237 1.19443ZM30.2676 2.72778C31.0715 3.11483 31.2203 3.56144 31.2203 5.54139V7.25338H29.4488C27.3944 7.25338 27.0967 7.11939 26.6649 5.94333C26.2183 4.69283 26.3374 4.72261 22.0649 4.72261C18.239 4.72261 17.584 4.79704 17.4351 5.27342C16.8694 7.07473 16.6014 7.25338 14.3833 7.25338H12.6117V5.54139C12.6117 3.57632 12.7606 3.11483 13.5347 2.74266C13.9665 2.51936 14.9341 2.48958 21.8863 2.48958C28.8682 2.48958 29.821 2.51936 30.2676 2.72778ZM11.0933 25.46C11.1528 28.5714 11.004 29.5241 10.3489 30.2685C9.48551 31.251 9.30687 31.2957 5.73402 31.3403L2.48869 31.3999V29.4646C2.48869 26.5319 3.06927 25.0581 4.72171 23.8522C5.92755 22.959 6.85054 22.7357 9.11334 22.7804L11.0486 22.8101L11.0933 25.46ZM37.4877 23.0334C39.2146 23.5694 40.4502 24.7901 41.0605 26.5467C41.2987 27.2315 41.3434 27.7079 41.3136 29.3306L41.2689 31.2957H38.0683C34.5103 31.2957 34.3466 31.251 33.4831 30.2685C32.8579 29.539 32.709 28.6756 32.709 25.4898V22.7357H34.6294C36.133 22.7357 36.7582 22.7953 37.4877 23.0334ZM35.6566 69.7186C37.5026 70.4927 38.1129 72.5769 36.9815 74.2591C35.9841 75.7478 33.5724 75.8818 32.3071 74.5122C30.863 72.9789 31.5478 70.3885 33.6022 69.5846C34.0339 69.4209 35.1058 69.4804 35.6566 69.7186Z" fill="#009946" stroke="#009946"/>
<path d="M1.25319 49.2043C1.015 49.4574 1.00012 50.4251 1.00012 60.0866C1.00012 71.6686 0.970343 71.2667 1.86355 72.2045C2.42925 72.8 3.02473 73.0828 3.9626 73.1871L4.7516 73.2764L5.03445 74.0356C5.95744 76.4919 8.80083 77.6829 11.153 76.5961C12.8203 75.822 13.8028 74.2887 13.8028 72.4129C13.8028 70.6116 12.4928 68.7657 10.7957 68.2C9.67915 67.8278 8.13092 67.9618 7.10373 68.5275C6.15097 69.0485 5.22798 70.1501 4.98979 71.0582C4.82604 71.6686 4.76649 71.7133 4.305 71.7133C4.03704 71.7133 3.6202 71.6091 3.38201 71.49C2.45903 71.0136 2.4888 71.4006 2.4888 59.9526C2.4888 49.7254 2.4888 49.5318 2.19106 49.2341C1.81889 48.8619 1.56582 48.8619 1.25319 49.2043ZM10.6915 69.8226C12.3588 70.7158 12.8203 72.9638 11.6144 74.4078C9.79825 76.5664 6.31472 75.2861 6.31472 72.4725C6.31472 71.5495 6.5678 70.954 7.20794 70.3437C8.16069 69.4356 9.56006 69.2272 10.6915 69.8226Z" fill="#009946" stroke="#009946"/>
<rect x="6" y="38" width="2" height="18" rx="1" fill="#009946"/>
<rect x="35" y="38" width="2" height="18" rx="1" fill="#009946"/>
<rect x="17" y="32" width="2" height="9" rx="1" fill="#009946"/>
<rect x="25" y="32" width="2" height="9" rx="1" fill="#009946"/>
<rect x="17" y="53" width="2" height="9" rx="1" fill="#009946"/>
<rect x="25" y="53" width="2" height="9" rx="1" fill="#009946"/>
<rect x="11.75" y="43.75" width="20.5" height="6.5" rx="2.25" stroke="#009946" stroke-width="1.5"/>
</svg>
