<svg width="74" height="80" viewBox="0 0 74 80" fill="none" xmlns="http://www.w3.org/2000/svg">
<path fill-rule="evenodd" clip-rule="evenodd" d="M71.303 23.1352L68.8417 18.8648C66.76 15.2513 62.1459 14.0047 58.5274 16.0781C56.8051 17.0927 54.7499 17.3806 52.8149 16.8782C50.8799 16.3758 49.2245 15.1244 48.2131 13.4C47.5627 12.3039 47.2132 11.0555 47.1997 9.78095C47.2586 7.73754 46.4877 5.75739 45.0627 4.29159C43.6377 2.82579 41.6802 1.99913 39.6361 2H34.678C32.6754 1.99996 30.755 2.798 29.3423 4.21754C27.9296 5.63711 27.1407 7.56108 27.1504 9.5638C27.091 13.6987 23.7219 17.0195 19.5866 17.019C18.312 17.0058 17.0636 16.6562 15.9675 16.0057C12.3491 13.9323 7.73518 15.1789 5.65322 18.7924L3.01132 23.1352C0.931855 26.7442 2.16145 31.3552 5.76179 33.4496C8.10206 34.8006 9.54374 37.2979 9.54374 39.9999C9.54374 42.7023 8.10206 45.1992 5.76179 46.5506C2.16604 48.6307 0.935098 53.2305 3.01132 56.8285L5.50847 61.1354C6.48396 62.8956 8.12064 64.1945 10.0564 64.7444C11.9921 65.2948 14.0673 65.0509 15.8227 64.0668C17.5484 63.0597 19.6048 62.7837 21.5349 63.3005C23.465 63.8169 25.1088 65.0829 26.1008 66.817C26.7514 67.9134 27.101 69.1616 27.1142 70.4364C27.1142 74.6136 30.5008 78 34.678 78H39.6361C43.7995 78 47.18 74.6357 47.1997 70.4723C47.1902 68.4634 47.9842 66.5339 49.4048 65.1133C50.8254 63.6927 52.7548 62.8988 54.7638 62.9087C56.0353 62.9427 57.2784 63.2906 58.3827 63.9221C61.9917 66.0014 66.6027 64.7717 68.697 61.1714L71.303 56.8285C72.3116 55.0975 72.5883 53.0356 72.072 51.0994C71.5556 49.1637 70.2888 47.5133 68.5523 46.5142C66.8158 45.5151 65.549 43.8648 65.0326 41.929C64.5162 39.9932 64.7934 37.9313 65.802 36.1999C66.4576 35.0549 67.4073 34.1056 68.5523 33.4496C72.1309 31.3563 73.3578 26.7723 71.303 23.1714V23.1352Z" stroke="#009946" stroke-width="3" stroke-linecap="round" stroke-linejoin="round"/>
<path d="M33.2448 22.1955C31.7894 22.4339 29.6266 23.1358 28.1713 23.851C22.9615 26.3938 19.1936 31.3204 18.2142 36.8828C17.9286 38.4454 17.9286 41.5446 18.2142 43.1072C19.2208 48.7358 22.9206 53.5698 28.1713 56.1391C29.6947 56.8807 31.7894 57.5563 33.3672 57.8078C35.0404 58.0728 37.9921 58.0594 39.638 57.7946C42.1408 57.384 45.3918 56.1259 45.7183 55.424C46.0176 54.8016 45.9223 54.3115 45.419 53.8214C44.8613 53.2784 44.3715 53.2388 43.4602 53.689C41.4198 54.6956 38.9715 55.2386 36.4958 55.2386C32.1702 55.2386 28.348 53.6626 25.3146 50.6429C22.3358 47.6763 20.8531 44.1403 20.8531 39.995C20.8531 35.8498 22.3358 32.3136 25.3146 29.347C28.348 26.3275 32.1702 24.7515 36.4958 24.7515C40.8214 24.7515 44.6437 26.3275 47.677 29.347C50.6559 32.3136 52.1386 35.8498 52.1386 39.995C52.1386 41.8491 51.9209 43.253 51.3904 44.7628C50.9959 45.8752 50.9687 46.2196 51.2409 46.7362C51.5809 47.3718 52.4786 47.597 53.2268 47.2128C53.6211 47.0142 53.9068 46.4315 54.3693 44.8819C55.0086 42.7497 55.1855 39.3725 54.791 36.9754C53.5396 29.4928 47.2825 23.4006 39.5971 22.1822C38.0329 21.9306 34.7955 21.9438 33.2448 22.1955Z" fill="#009946"/>
<path d="M48.39 49.3901C48.0751 49.705 48 49.93 48 50.5C48 51.07 48.0751 51.295 48.39 51.6099C48.705 51.9249 48.93 52 49.5001 52C50.07 52 50.295 51.9249 50.61 51.6099C50.9249 51.295 51 51.07 51 50.5C51 49.93 50.9249 49.705 50.61 49.3901C50.295 49.0751 50.07 49 49.5001 49C48.93 49 48.705 49.0751 48.39 49.3901Z" fill="#009946"/>
<path d="M38.3045 32.5179C37.7799 32.6964 37.3223 33.2768 37.0656 34.1028C36.5968 35.6095 36.1392 36.2792 34.9896 37.1275C33.7507 38.0427 33.4494 38.5784 33.974 38.9133C34.2642 39.1142 34.5543 39.036 34.7218 38.7347C34.7776 38.6231 35.1124 38.3329 35.4696 38.0873C36.7085 37.2502 37.5121 36.1453 38.0032 34.6162C38.2487 33.8572 38.5501 33.5001 38.9742 33.5001C39.3648 33.5001 39.8448 33.9465 39.8448 34.3148C39.8448 34.7278 39.5211 35.7211 39.1081 36.5582C38.6728 37.44 38.6617 37.5404 38.9072 37.786C39.0523 37.9422 39.4653 37.9645 41.6417 37.9645H44.22L44.5548 38.2994C44.8562 38.6119 44.8896 38.7012 44.8338 39.1476C44.7892 39.5383 44.6999 39.7392 44.4209 39.9847C44.1418 40.2414 44.0749 40.3754 44.1418 40.5651C44.1865 40.6991 44.2535 41.0227 44.2758 41.2906C44.3316 41.737 44.2981 41.804 43.874 42.1947C43.394 42.6411 43.3159 42.909 43.5838 43.255C43.9409 43.7237 43.7289 44.4939 43.1597 44.8287C42.6909 45.0966 42.6351 45.1859 42.6351 45.7551C42.6351 46.1457 42.5681 46.3132 42.3114 46.5699L41.9877 46.8935H39.8783C38.4943 46.8824 37.646 46.8377 37.3893 46.7484C36.8982 46.5699 35.3356 45.4761 34.8334 44.9515C34.3646 44.4716 33.9851 44.4269 33.7954 44.8287C33.6949 45.0631 33.7172 45.1635 33.9628 45.543C34.2976 46.0564 35.6481 47.0498 36.7196 47.5855L37.4451 47.9539H39.789C41.9319 47.9539 42.1663 47.9315 42.5123 47.7306C43.0592 47.407 43.528 46.7819 43.6061 46.2685C43.6508 45.9672 43.7847 45.7216 44.0526 45.4761C44.5883 44.9626 44.778 44.4269 44.7446 43.6121C44.7111 43.0318 44.7446 42.8643 44.9789 42.5407C45.191 42.2393 45.258 41.9826 45.3026 41.3687C45.3249 40.7995 45.4031 40.4982 45.5816 40.2526C45.7714 39.9847 45.816 39.7503 45.816 39.0584C45.816 38.2771 45.7937 38.1766 45.47 37.7748C44.8115 36.96 44.6218 36.9042 42.2668 36.8707C40.347 36.8373 40.1684 36.8149 40.2354 36.6475C41.1172 34.5604 41.0502 33.355 40.0233 32.7188C39.5657 32.4397 38.7956 32.3504 38.3045 32.5179Z" fill="#009946" stroke="#009946" stroke-width="0.5"/>
<path d="M28.6947 38.1209C28.1478 38.4334 28.1366 38.5116 28.1255 42.9649C28.1255 47.5298 28.1366 47.6303 28.784 47.887C28.9961 47.9874 29.5764 48.0209 30.5028 47.9874C31.8087 47.954 31.9203 47.9316 32.1882 47.6861L32.4784 47.4182V42.9872V38.5562L32.1882 38.2883C31.9203 38.0316 31.8199 38.0205 30.4359 37.987C29.3532 37.9758 28.8956 37.9981 28.6947 38.1209ZM31.4739 42.9872V46.8936H30.3019H29.13V42.9872V39.0808H30.3019H31.4739V42.9872Z" fill="#009946" stroke="#009946" stroke-width="0.5"/>
</svg>
