<svg width="95" height="77" viewBox="0 0 95 77" fill="none" xmlns="http://www.w3.org/2000/svg">
<path d="M55.7568 3.96875C54.7262 4.34535 53.9731 5.02918 53.4675 6.05987L53.2 6.60496V27.5658V48.5266L53.4874 49.1213C53.864 49.8843 54.6172 50.6375 55.3802 51.014L55.9749 51.3015H66.6288H77.2826L77.8771 51.014C78.6404 50.6375 79.3935 49.8843 79.7701 49.1213L80.0576 48.5266L80.0872 42.4019L80.1171 36.287H86.7274C93.1494 36.287 93.3475 36.2771 93.6646 36.0888C94.3089 35.6924 94.3783 35.4546 94.3783 33.4725C94.3783 31.847 94.3585 31.6787 94.1702 31.3616C93.962 31.0245 93.3475 30.6381 93.0205 30.6381C92.7331 30.6381 91.8708 30.1921 91.4745 29.8551C91.2763 29.6767 90.979 29.2604 90.8104 28.9334C90.5528 28.4181 90.5131 28.2199 90.5131 27.5658C90.5131 26.9116 90.5528 26.7134 90.8104 26.1981C90.979 25.871 91.2763 25.4549 91.4745 25.2765C91.8708 24.9394 92.7331 24.4935 93.0205 24.4935C93.3475 24.4935 93.962 24.107 94.1702 23.7699C94.3585 23.4528 94.3783 23.2845 94.3783 21.6591C94.3783 19.677 94.3089 19.4391 93.6646 19.0427C93.3475 18.8544 93.1494 18.8445 86.7274 18.8445H80.1171L80.0872 12.7198L80.0576 6.60496L79.7701 6.01032C79.3935 5.24721 78.6404 4.49401 77.8771 4.11741L77.2826 3.83001L66.7774 3.81019C56.7281 3.79036 56.2525 3.79036 55.7568 3.96875ZM77.0843 5.62382C77.6294 5.92113 78.016 6.32747 78.2537 6.85272C78.4223 7.20951 78.462 7.56629 78.5015 8.706L78.5511 10.1232H66.6288H54.7063L54.7559 8.706C54.7956 7.56629 54.8353 7.20951 55.0036 6.85272C55.3407 6.09953 55.9749 5.59408 56.7678 5.45533C56.9857 5.41569 61.5546 5.39587 66.9261 5.40578L76.6879 5.41569L77.0843 5.62382ZM78.5214 15.2767V18.8445H71.9112C65.4791 18.8445 65.2809 18.8544 64.9638 19.0427C64.3195 19.4391 64.2502 19.677 64.2502 21.6591C64.2502 23.2845 64.2701 23.4528 64.4584 23.7699C64.6664 24.107 65.2809 24.4935 65.6178 24.4935C65.9548 24.4935 67.0054 25.0882 67.3323 25.4549C68.1847 26.436 68.373 27.8036 67.818 28.9334C67.6494 29.2604 67.3523 29.6767 67.1539 29.8551C66.7576 30.1921 65.8954 30.6381 65.6079 30.6381C65.2809 30.6381 64.6664 31.0245 64.4584 31.3616C64.2701 31.6787 64.2502 31.847 64.2502 33.4725C64.2502 35.4546 64.3195 35.6924 64.9638 36.0888C65.2809 36.2771 65.4791 36.287 71.9112 36.287H78.5214V39.8548V43.4226H66.6288H54.7361V27.5658V11.7089H66.6288H78.5214V15.2767ZM83.2785 21.8176C83.2785 23.0763 83.2982 23.225 83.4766 23.4032C83.6055 23.5323 83.8036 23.6016 84.0713 23.6016C84.3389 23.6016 84.537 23.5323 84.6659 23.4032C84.8443 23.225 84.8642 23.0763 84.8642 21.8176V20.4302H88.7788H92.7034L92.6736 21.6194L92.644 22.8186L91.9898 23.0466C90.5528 23.5421 89.5221 24.6124 89.0167 26.099C88.8481 26.6144 88.8185 26.9017 88.8481 27.7639C88.878 28.7155 88.9076 28.864 89.2447 29.5676C89.8591 30.856 90.8105 31.6985 92.1386 32.1345L92.7925 32.3526V33.5221V34.7014H88.8284H84.8642V33.7104C84.8642 32.5409 84.7453 32.3228 84.0713 32.3228C83.3974 32.3228 83.2785 32.5409 83.2785 33.7104V34.7014H74.5869H65.8855L65.9351 33.512L65.9845 32.3129L66.6387 32.0849C68.601 31.4011 69.8001 29.6865 69.8001 27.5658C69.8001 25.3954 68.5514 23.671 66.48 22.997L65.8359 22.779V21.6095V20.4302H74.5571H83.2785V21.8176ZM78.5015 46.4157C78.4521 48.0508 78.3132 48.4969 77.6592 49.0816C76.9159 49.7456 77.5006 49.7158 66.5792 49.7158C56.7182 49.7158 56.6686 49.7158 56.2227 49.5077C55.6479 49.2402 55.2514 48.8437 55.0036 48.2788C54.8353 47.922 54.7956 47.5652 54.7559 46.4157L54.7063 45.0083H66.6288H78.5511L78.5015 46.4157Z" fill="#009946"/>
<path d="M64.4474 7.14962C64.3186 7.27846 64.2493 7.47667 64.2493 7.74427C64.2493 8.01184 64.3186 8.21005 64.4474 8.33889C64.6357 8.5272 64.7746 8.5371 66.6279 8.5371C68.4811 8.5371 68.6198 8.5272 68.8081 8.33889C68.937 8.21005 69.0063 8.01184 69.0063 7.74427C69.0063 7.47667 68.937 7.27846 68.8081 7.14962C68.6198 6.96133 68.4811 6.95142 66.6279 6.95142C64.7746 6.95142 64.6357 6.96133 64.4474 7.14962Z" fill="#009946"/>
<path d="M71.5839 23.007C71.4548 23.1358 71.3855 23.3342 71.3855 23.6017C71.3855 23.8692 71.4548 24.0674 71.5839 24.1964C71.7721 24.3847 71.9108 24.3946 76.1425 24.3946C80.3744 24.3946 80.5131 24.3847 80.7014 24.1964C80.8304 24.0674 80.8997 23.8692 80.8997 23.6017C80.8997 23.3342 80.8304 23.1358 80.7014 23.007C80.5131 22.8187 80.3744 22.8088 76.1425 22.8088C71.9108 22.8088 71.7721 22.8187 71.5839 23.007Z" fill="#009946"/>
<path d="M83.4772 24.5925C83.2988 24.7709 83.2791 24.9194 83.2791 25.9798C83.2791 27.3674 83.3782 27.5656 84.0719 27.5656C84.7656 27.5656 84.8648 27.3674 84.8648 25.9798C84.8648 24.5925 84.7656 24.3943 84.0719 24.3943C83.8044 24.3943 83.606 24.4636 83.4772 24.5925Z" fill="#009946"/>
<path d="M71.5839 26.9708C71.4548 27.0996 71.3855 27.2978 71.3855 27.5653C71.3855 27.833 71.4548 28.0312 71.5839 28.16C71.7721 28.3483 71.9108 28.3582 76.1425 28.3582C80.3744 28.3582 80.5131 28.3483 80.7014 28.16C80.8304 28.0312 80.8997 27.833 80.8997 27.5653C80.8997 27.2978 80.8304 27.0996 80.7014 26.9708C80.5131 26.7823 80.3744 26.7725 76.1425 26.7725C71.9108 26.7725 71.7721 26.7823 71.5839 26.9708Z" fill="#009946"/>
<path d="M83.4772 28.5568C83.2988 28.7352 83.2791 28.8838 83.2791 29.9444C83.2791 31.3318 83.3782 31.5299 84.0719 31.5299C84.7656 31.5299 84.8648 31.3318 84.8648 29.9444C84.8648 28.5568 84.7656 28.3586 84.0719 28.3586C83.8044 28.3586 83.606 28.428 83.4772 28.5568Z" fill="#009946"/>
<path d="M71.5839 30.935C71.4548 31.0638 71.3855 31.262 71.3855 31.5297C71.3855 31.7972 71.4548 31.9954 71.5839 32.1242C71.7721 32.3127 71.9108 32.3226 76.1425 32.3226C80.3744 32.3226 80.5131 32.3127 80.7014 32.1242C80.8304 31.9954 80.8997 31.7972 80.8997 31.5297C80.8997 31.262 80.8304 31.0638 80.7014 30.935C80.5131 30.7467 80.3744 30.7368 76.1425 30.7368C71.9108 30.7368 71.7721 30.7467 71.5839 30.935Z" fill="#009946"/>
<path d="M64.4474 46.7924C64.3186 46.9212 64.2493 47.1194 64.2493 47.3869C64.2493 47.6546 64.3186 47.8528 64.4474 47.9816C64.6357 48.1699 64.7746 48.1798 66.6279 48.1798C68.4811 48.1798 68.6198 48.1699 68.8081 47.9816C68.937 47.8528 69.0063 47.6546 69.0063 47.3869C69.0063 47.1194 68.937 46.9212 68.8081 46.7924C68.6198 46.6041 68.4811 46.5942 66.6279 46.5942C64.7746 46.5942 64.6357 46.6041 64.4474 46.7924Z" fill="#009946"/>
<path d="M20.8133 0.215493C17.3246 0.853847 14.4298 2.35324 12.0248 4.77304C9.4417 7.37099 7.86808 10.5925 7.42272 14.2444C7.22973 15.8626 7.22973 28.1991 7.42272 29.2383C7.86808 31.5988 9.59015 33.4544 11.8764 34.0334C12.6483 34.2264 12.678 34.2709 12.9155 34.9687C13.5539 36.8243 14.8157 38.8285 16.2409 40.224L17.0723 41.0256V42.7477V44.4549L12.1287 45.8504C6.19055 47.5428 5.21075 47.8545 4.18641 48.4186C2.4495 49.4133 0.84619 51.5065 0.267218 53.57C0.0148454 54.4756 0 55.3515 0 65.2682V76.0015H25.6826H51.3652V65.2682C51.3652 55.3515 51.3504 54.4756 51.098 53.57C50.519 51.5065 48.9157 49.4133 47.1788 48.4186C46.1545 47.8545 45.1747 47.5428 39.2365 45.8504L34.293 44.4549V42.7477V41.0256L35.1243 40.224C36.5495 38.8285 37.8113 36.8243 38.4497 34.9687C38.6872 34.2709 38.7169 34.2264 39.4889 34.0334C41.7751 33.4544 43.4971 31.5988 43.9425 29.2383C44.0316 28.8078 44.091 26.0911 44.091 23.1665C44.091 20.0342 44.1503 17.6589 44.2394 17.3323C44.5809 16.1298 45.2489 15.4321 47.5054 13.903C48.693 13.1013 49.6728 12.3888 49.7025 12.3294C49.7768 12.1067 46.778 9.98379 45.3825 9.25637C43.9425 8.51409 42.5173 7.97966 41.1664 7.71244L40.3054 7.53429L41.0773 6.82171C42.1462 5.84191 43.1854 5.29263 45.4567 4.52067C46.5405 4.14953 47.5351 3.80809 47.6539 3.76355C47.9062 3.65963 42.933 1.93756 40.9734 1.44766C39.9936 1.19529 39.2662 1.12106 37.7074 1.12106C35.6291 1.12106 34.5453 1.31406 32.7193 1.95241L31.7989 2.27901L30.4332 1.64066C27.2859 0.185802 23.8269 -0.333788 20.8133 0.215493ZM27.0187 2.94705C27.6274 3.1252 28.9486 3.65963 29.9433 4.14953L31.7544 5.01057L32.9569 4.52067C34.7235 3.76355 36.2229 3.51118 38.2864 3.58541C39.2365 3.62994 40.1718 3.73386 40.3647 3.80809C40.7062 3.9417 40.6765 3.97139 39.7412 4.72851C39.2068 5.14418 38.4348 5.91614 38.034 6.42089C37.3214 7.31161 35.7775 9.55327 35.7775 9.68688C35.7775 9.71657 36.7276 9.7908 37.9004 9.83534C40.7507 9.93926 43.0815 10.5776 44.952 11.7801L45.5903 12.1809L44.7293 12.8193C43.5417 13.6952 42.7994 14.5562 42.2798 15.6696C41.7157 16.8721 41.5672 17.9261 41.5672 20.8952V23.3002L40.9883 22.929C40.6617 22.736 40.1272 22.4837 39.8006 22.3797L39.192 22.1867V19.2325C39.192 16.9463 39.1474 16.3079 39.0138 16.3673C38.9099 16.397 38.1825 16.8127 37.4105 17.2729C35.5697 18.3715 32.8381 19.7669 31.5466 20.2568C30.1066 20.821 27.8649 21.5335 27.7907 21.4593C27.761 21.4148 27.8055 21.0733 27.8797 20.6725C28.1024 19.663 28.2806 16.3228 28.1173 16.3228C28.043 16.3228 27.5086 16.59 26.9445 16.9315C23.1589 19.1583 19.4624 20.4201 15.8252 20.7319L14.697 20.821V19.6036V18.4012H13.4351H12.1733V20.3014V22.1867L11.5646 22.3797C11.238 22.4837 10.7036 22.736 10.377 22.9439L9.78314 23.315L9.82768 18.4457C9.88706 13.9475 9.91675 13.4873 10.2137 12.4927C11.7427 7.46007 15.558 3.86747 20.6352 2.73922C22.0752 2.41262 25.5638 2.53138 27.0187 2.94705ZM25.3857 20.7022C25.3857 20.9249 24.688 22.5727 24.1238 23.6564C23.7527 24.3542 23.5152 24.9332 23.5894 24.9332C23.8269 24.9332 26.5436 24.3542 27.7907 24.0424C30.3738 23.3744 32.9569 22.4094 35.347 21.2069C35.9853 20.8952 36.5495 20.628 36.594 20.628C36.6534 20.628 36.6682 23.3892 36.6237 26.7443C36.5643 33.5732 36.5792 33.4544 35.4361 35.6961C34.0257 38.4722 31.309 40.6248 28.2806 41.3522C26.9148 41.6788 24.4504 41.6788 23.0847 41.3522C20.0562 40.6248 17.3395 38.4722 15.9292 35.6961C14.8157 33.5435 14.8009 33.4099 14.7415 28.1101L14.6821 23.3447L15.0236 23.2408C15.2166 23.1962 15.6026 23.1517 15.8995 23.1517C17.6512 23.1517 22.0306 22.0531 24.1981 21.0882C25.1779 20.6428 25.3857 20.5686 25.3857 20.7022ZM12.1733 28.1843C12.1733 31.4355 12.1584 31.5839 11.8912 31.5097C11.3568 31.3761 10.4957 30.515 10.1543 29.7728C9.42685 28.1991 9.88706 26.2989 11.2528 25.2746C11.6091 25.0074 11.9654 24.7847 12.0397 24.7847C12.1139 24.7847 12.1733 26.2099 12.1733 28.1843ZM40.1124 25.2746C41.4782 26.2989 41.9384 28.1991 41.2109 29.7728C40.8695 30.515 40.0085 31.3761 39.474 31.5097C39.2068 31.5839 39.192 31.4355 39.192 28.1843C39.192 26.2099 39.2513 24.7847 39.3256 24.7847C39.3998 24.7847 39.7561 25.0074 40.1124 25.2746ZM20.4719 43.0446C21.7931 43.7126 23.3964 44.0095 25.6826 44.0095C27.9688 44.0095 29.5721 43.7126 30.8934 43.0446C31.2051 42.8813 31.5317 42.7477 31.6208 42.7477C31.7099 42.7477 31.7692 43.2376 31.7692 44.0095C31.7692 45.4495 31.5466 46.0434 30.6261 47.0677C28.2954 49.636 23.0698 49.636 20.7391 47.0677C19.8187 46.0434 19.596 45.4495 19.596 44.0095C19.596 43.2376 19.6554 42.7477 19.7444 42.7477C19.8335 42.7477 20.1601 42.8813 20.4719 43.0446ZM18.0075 47.5428C18.6013 48.5522 20.1898 49.9477 21.4071 50.5118C22.8768 51.2096 23.8418 51.4174 25.6826 51.4174C27.5234 51.4174 28.4884 51.2096 29.9581 50.5118C31.1754 49.9477 32.7639 48.5522 33.3577 47.5428C33.5507 47.2013 33.7882 46.9044 33.8624 46.9044C34.1445 46.9044 44.4918 49.9032 45.2637 50.2001C46.8819 50.8384 48.4407 52.7684 48.8266 54.5943C48.9306 55.0545 48.9899 57.0587 48.9899 59.523V63.6797H45.9466H42.9033V60.0426V56.4055H41.6415H40.3796V64.9713V73.552H25.6826H10.9856V64.9713V56.4055H9.72376H8.4619V60.0426V63.6797H5.41859H2.37527V59.523C2.37527 55.1139 2.46434 54.2974 3.07301 53.0801C3.57775 52.0706 4.79508 50.8384 5.70065 50.3931C6.39838 50.0516 16.8199 46.9489 17.3989 46.9192C17.5325 46.9044 17.7997 47.1716 18.0075 47.5428ZM8.4619 69.8703V73.552L5.61158 73.5223C4.03796 73.4926 2.65733 73.4777 2.56826 73.4777C2.41981 73.4777 2.37527 72.6464 2.37527 69.8406V66.2035H5.41859H8.4619V69.8703ZM48.9899 69.8406C48.9899 72.6464 48.9454 73.4777 48.8118 73.4777C48.7079 73.4777 47.3273 73.4926 45.7536 73.5223L42.9033 73.552V69.8703V66.2035H45.9466H48.9899V69.8406Z" fill="#009946"/>
<path d="M18.7054 26.1206C18.3342 26.4917 18.3194 27.3082 18.6757 27.7388C18.8093 27.9021 19.1359 28.0951 19.4031 28.1396C19.8039 28.2138 19.9524 28.1544 20.3384 27.7833C20.858 27.2489 20.9025 26.759 20.472 26.2097C20.086 25.7198 19.1656 25.6604 18.7054 26.1206Z" fill="#009946"/>
<path d="M30.8934 26.2097C30.4629 26.759 30.5075 27.2489 31.0271 27.7833C31.413 28.1544 31.5615 28.2138 31.9623 28.1396C32.571 28.0208 32.957 27.5606 32.957 26.9223C32.957 26.2245 32.5264 25.8237 31.7842 25.8237C31.324 25.8237 31.131 25.9128 30.8934 26.2097Z" fill="#009946"/>
<path d="M20.8429 33.6472C21.1844 35.7553 22.4314 37.1953 24.4058 37.7743C25.7568 38.1751 27.0632 37.9673 28.3844 37.1211C29.5424 36.3788 30.2698 35.2209 30.5222 33.6472L30.6261 33.098H29.3642H28.1024L28.0133 33.6175C27.8351 34.7161 26.885 35.4732 25.6825 35.4732C24.4801 35.4732 23.53 34.7161 23.3518 33.6175L23.2627 33.098H22.0009H20.739L20.8429 33.6472Z" fill="#009946"/>
</svg>
