<svg width="28" height="24" viewBox="0 0 28 24" fill="none" xmlns="http://www.w3.org/2000/svg">
<path d="M13.9533 0C15.3869 2.45927 16.8206 4.89095 18.2012 7.35022C15.9396 11.3564 13.6779 15.3921 11.3337 19.3707C10.4232 20.89 9.56767 22.4389 8.65909 23.9582C5.7642 23.9858 2.86735 23.9858 0 23.9582C0.0825986 23.7651 0.165197 23.5719 0.275329 23.3788C4.85168 15.5852 9.43001 7.82119 13.9533 0ZM13.9533 14.9231C16.8481 14.9231 19.745 14.8955 22.6399 14.9507C24.3764 17.9637 26.1425 20.9472 27.8515 23.9877C24.9566 24.0153 22.0597 23.9877 19.1648 23.9877C17.4558 20.9472 15.6623 17.9617 13.9533 14.9231Z" fill="#AE285D"/>
</svg>
