<svg width="48" height="24" viewBox="0 0 48 24" fill="none" xmlns="http://www.w3.org/2000/svg">
<path d="M18.3188 5.91517C19.7305 6.47307 21.1261 7.07103 22.5038 7.70833C18.1268 9.48469 13.8919 11.5929 9.83606 14.0145C8.46765 13.2972 7.07865 12.6199 5.67082 11.9835C9.71794 9.62611 13.9475 7.59683 18.3188 5.91517ZM13.0963 4.07031C8.55684 5.50854 4.17022 7.39069 0 9.68945C1.32514 10.1688 2.63898 10.6791 3.93311 11.2251C7.97318 8.84839 12.228 6.85723 16.6412 5.27797C15.4692 4.84776 14.2872 4.4451 13.0963 4.07031Z" fill="#0067B1"/>
<path d="M27.8301 5.7385C24.2432 4.00314 20.5274 2.54804 16.7159 1.38622C15.372 1.77343 14.0393 2.1954 12.7198 2.65497C16.6442 3.8173 20.47 5.28961 24.1611 7.05799C25.3744 6.59156 26.5977 6.15162 27.8301 5.7385ZM33.6692 3.99796C29.9966 2.3971 26.2143 1.06104 22.351 0C21.1196 0.254823 19.8944 0.538726 18.6763 0.85147C22.5084 1.97154 26.2475 3.38772 29.8601 5.08721C31.1218 4.69661 32.3918 4.33345 33.6692 3.99796ZM43.0438 7.14728C33.9283 10.2214 25.3107 14.6106 17.464 20.1759C19.4089 21.3721 21.309 22.6398 23.1602 23.9765C30.5539 18.1096 38.7146 13.2803 47.4158 9.62274C45.9828 8.75531 44.5249 7.9298 43.0438 7.14728ZM36.7264 4.14551C27.2564 6.65418 18.2616 10.6979 10.0996 16.1159C11.922 17.012 13.7128 17.9708 15.4688 18.9908C23.4653 13.4515 32.2828 9.20345 41.5984 6.402C39.9985 5.59884 38.3737 4.8463 36.7264 4.14551ZM26.1572 22.9925C26.1572 22.4427 26.6196 21.9954 27.1882 21.9954C27.7568 21.9954 28.2192 22.4427 28.2192 22.9925C28.2192 23.5526 27.7568 24 27.1882 24C26.6196 24 26.1572 23.5526 26.1572 22.9925ZM26.3518 22.9925C26.3518 23.4502 26.724 23.8026 27.1882 23.8026C27.6478 23.8026 28.0209 23.4502 28.0209 22.9925C28.0209 22.5499 27.6487 22.1937 27.1882 22.1937C26.7249 22.1937 26.3518 22.5499 26.3518 22.9925Z" fill="#E31836"/>
<path d="M27.7013 23.5581H27.5086L27.1778 23.0421H26.9738V23.5581H26.8047V22.4387H27.3065C27.4044 22.4322 27.5022 22.4514 27.5904 22.4942C27.6304 22.5205 27.663 22.5566 27.6852 22.599C27.7074 22.6414 27.7184 22.6888 27.7172 22.7367C27.7172 22.9547 27.5575 23.0374 27.3535 23.043L27.7013 23.5581ZM27.1656 22.9049C27.3253 22.9049 27.5462 22.9321 27.5462 22.732C27.5462 22.5863 27.4184 22.5666 27.2736 22.5666H26.9767V22.903L27.1656 22.9049Z" fill="#E31836"/>
</svg>
