<svg width="22" height="24" viewBox="0 0 22 24" fill="none" xmlns="http://www.w3.org/2000/svg">
<path fill-rule="evenodd" clip-rule="evenodd" d="M14.6793 5.03753C15.5752 3.9369 15.7928 2.62834 15.1637 2.12535C14.5345 1.622 13.2901 2.10957 12.3938 3.21056C11.4979 4.31155 11.2803 5.61975 11.9095 6.1231C12.539 6.62609 13.783 6.13852 14.6793 5.03753ZM16.6798 17.1563C21.3781 11.2753 22.4421 4.28645 19.0478 1.5987C15.6534 -1.08941 9.05285 1.51516 4.35421 7.39581C-0.344068 13.2768 -1.40813 20.266 1.98625 22.9541C2.7825 23.5844 3.75514 23.9239 4.8382 23.9974C5.73591 23.6424 6.34538 22.7042 6.54041 22.1747C6.75121 21.6018 8.73629 16.1761 8.98115 13.5278C9.16184 11.5692 8.37491 11.4803 7.92641 11.6596C7.47469 11.8403 6.66087 12.2626 6.1188 12.292C5.57638 12.3228 5.51615 11.9908 5.81765 11.5993C6.1188 11.2079 10.3689 7.18573 11.9338 7.38111C13.1392 7.53169 13.35 8.76712 13.0786 9.55046C12.8072 10.3338 11.9034 13.7085 11.542 15.4555C11.1803 17.2032 10.7583 19.6443 10.8791 20.5775C10.9716 21.296 11.2602 21.6398 11.6216 21.8155C13.3919 20.6621 15.1382 19.0858 16.6798 17.1563Z" fill="#5B5F60"/>
<path fill-rule="evenodd" clip-rule="evenodd" d="M15.4011 4.49882C16.2974 3.39783 16.5146 2.08963 15.8854 1.58628C15.2563 1.08293 14.0119 1.5705 13.116 2.67149C12.2197 3.77248 12.0024 5.08068 12.6316 5.58403C13.2608 6.08738 14.5048 5.5998 15.4011 4.49882ZM17.4016 16.6176C22.1002 10.7362 23.1639 3.74774 19.7696 1.05963C16.3752 -1.62848 9.77499 0.976095 5.07599 6.8571C0.377355 12.7385 -0.686345 19.7273 2.70803 22.4147C3.50428 23.0456 4.47692 23.3844 5.56034 23.4587C6.45769 23.103 7.06752 22.1648 7.26255 21.636C7.47336 21.0631 9.45843 15.6374 9.70329 12.9883C9.88398 11.0302 9.09705 10.9413 8.64855 11.1205C8.19683 11.3016 7.38337 11.7232 6.84094 11.7533C6.29852 11.7834 6.23829 11.4521 6.53944 11.0603C6.84094 10.6688 11.0907 6.6463 12.656 6.84204C13.8609 6.99262 14.0721 8.22805 13.8007 9.01139C13.5297 9.79474 12.6259 13.169 12.2641 14.9168C11.9028 16.6645 11.4808 19.1049 11.6012 20.0388C11.6937 20.7566 11.9823 21.1011 12.3437 21.276C14.114 20.1234 15.86 18.5467 17.4016 16.6176Z" fill="#D2562E"/>
<path fill-rule="evenodd" clip-rule="evenodd" d="M15.4014 4.49822C16.2976 3.39723 16.5149 2.08903 15.8857 1.58568C15.2565 1.08233 14.0121 1.5699 13.1162 2.67089C12.2199 3.77188 12.0027 5.08008 12.6319 5.58343C13.2611 6.08678 14.5051 5.5992 15.4014 4.49822ZM18.2763 13.9317C22.1812 9.00147 22.7666 3.14162 19.5798 0.888378C16.393 -1.36522 10.6088 0.818109 6.7039 5.74906C2.799 10.6797 2.21356 16.5388 5.40036 18.7928C6.13315 19.3108 7.00362 19.5937 7.95654 19.6632C8.62372 17.6893 9.54187 14.7351 9.7032 12.9881C9.88389 11.0299 9.09696 10.941 8.64846 11.1203C8.19674 11.3013 7.38328 11.7229 6.84085 11.753C6.29843 11.7832 6.2382 11.4519 6.53934 11.06C6.84085 10.6685 11.0906 6.64606 12.6559 6.8418C13.8608 6.99238 14.072 8.22781 13.8006 9.01115C13.5296 9.7945 12.6258 13.1688 12.264 14.9165C11.9966 16.209 11.6965 17.8814 11.6069 19.0416C13.9275 18.156 16.3342 16.3839 18.2763 13.9317Z" fill="#BA2A2F"/>
</svg>
