<svg width="21" height="24" viewBox="0 0 21 24" fill="none" xmlns="http://www.w3.org/2000/svg">
<path d="M5.77848 23.1838L6.19441 20.5419L5.26791 20.5204H0.84375L3.91831 1.02564C3.92747 0.966074 3.95772 0.911781 4.00356 0.872658C4.0494 0.833534 4.10777 0.812186 4.16803 0.812503H11.6278C14.1043 0.812503 15.8134 1.32785 16.7057 2.34501C17.124 2.82218 17.3904 3.32083 17.5192 3.86957C17.6544 4.44536 17.6568 5.13327 17.5248 5.9723L17.5153 6.03354V6.57115L17.9336 6.80814C18.2529 6.96993 18.54 7.18879 18.7806 7.45391C19.1384 7.86189 19.3699 8.38041 19.4677 8.99517C19.5687 9.62742 19.5353 10.3798 19.3699 11.2315C19.179 12.2113 18.8704 13.0646 18.4537 13.7629C18.086 14.3884 17.5916 14.9302 17.0023 15.3535C16.4488 15.7463 15.7911 16.0446 15.0475 16.2354C14.327 16.4231 13.5054 16.5177 12.6044 16.5177H12.0238C11.6087 16.5177 11.2055 16.6673 10.889 16.9353C10.5729 17.2061 10.3632 17.5804 10.2973 17.9914L10.2535 18.2292L9.51869 22.8856L9.48529 23.0566C9.47654 23.1106 9.46143 23.1377 9.43917 23.156C9.4176 23.1736 9.39068 23.1834 9.36282 23.1838H5.77848Z" fill="#253B80"/>
<path d="M18.3301 6.09375C18.3078 6.23611 18.2823 6.38164 18.2537 6.53116C17.2699 11.582 13.9043 13.3268 9.60581 13.3268H7.41719C6.89151 13.3268 6.44854 13.7086 6.36662 14.2271L5.24607 21.3338L4.92875 23.3482C4.91611 23.4281 4.92094 23.5098 4.9429 23.5877C4.96486 23.6655 5.00343 23.7377 5.05596 23.7992C5.10849 23.8608 5.17373 23.9102 5.24719 23.9441C5.32064 23.978 5.40057 23.9955 5.48147 23.9956H9.36325C9.82292 23.9956 10.2134 23.6615 10.2858 23.2082L10.324 23.011L11.0548 18.3729L11.1017 18.1184C11.1733 17.6635 11.5646 17.3295 12.0243 17.3295H12.6048C16.3657 17.3295 19.3099 15.8026 20.1703 11.384C20.5298 9.53812 20.3437 7.99686 19.3926 6.91289C19.0911 6.57757 18.731 6.29999 18.3301 6.09375Z" fill="#179BD7"/>
<path d="M17.3006 5.68933C16.9864 5.59846 16.6669 5.52754 16.3438 5.47699C15.7055 5.37888 15.0603 5.33181 14.4145 5.33622H8.56755C8.34504 5.33605 8.1298 5.41549 7.96075 5.56018C7.7917 5.70487 7.68 5.90527 7.64582 6.12514L6.402 14.0032L6.36621 14.233C6.40496 13.9823 6.53219 13.7536 6.72489 13.5885C6.91758 13.4234 7.16301 13.3327 7.41678 13.3328H9.6054C13.9039 13.3328 17.2695 11.5871 18.2533 6.5371C18.2827 6.38758 18.3074 6.24205 18.3296 6.09969C18.0701 5.96356 17.7995 5.84944 17.5208 5.75852C17.4478 5.73428 17.3744 5.71121 17.3006 5.68933Z" fill="#222D65"/>
<path d="M7.64578 6.12288C7.67966 5.90294 7.79131 5.70246 7.96044 5.55784C8.12958 5.41322 8.34498 5.33407 8.56751 5.33476H14.4144C15.1071 5.33476 15.7537 5.38009 16.3438 5.47552C16.7431 5.53828 17.1369 5.63214 17.5216 5.75626C17.8119 5.85249 18.0815 5.96621 18.3304 6.09743C18.6231 4.2309 18.328 2.96004 17.3188 1.80927C16.2062 0.542383 14.1981 0 11.6286 0H4.1688C3.64391 0 3.19617 0.381736 3.11505 0.901055L0.00788102 20.5962C-0.00659166 20.6877 -0.00108529 20.7812 0.0240213 20.8703C0.049128 20.9594 0.093239 21.042 0.15332 21.1124C0.213401 21.1829 0.288027 21.2395 0.372063 21.2783C0.456099 21.3171 0.547552 21.3373 0.640131 21.3374H5.24561L6.40195 14.001L7.64578 6.12288Z" fill="#253B80"/>
</svg>
