<svg width="25" height="24" viewBox="0 0 25 24" fill="none" xmlns="http://www.w3.org/2000/svg">
<path d="M12.0038 0C10.4256 0.00166039 8.86312 0.314203 7.40569 0.919779C5.94826 1.52536 4.62439 2.4121 3.5097 3.52937C2.39501 4.64665 1.51134 5.97256 0.909137 7.43139C0.306938 8.89022 -0.00198526 10.4534 9.59984e-06 12.0316C-0.00346513 15.0061 1.09618 17.8763 3.08628 20.087C5.07639 22.2977 7.81556 23.6919 10.7741 24V15.2578C10.1197 15.0083 9.55649 14.566 9.15889 13.9895C8.7613 13.413 8.54807 12.7294 8.5474 12.0291C8.5474 10.1238 10.0985 8.57269 12.0038 8.57269C13.9091 8.57269 15.4602 10.1238 15.4602 12.0291C15.4602 13.5017 14.5316 14.7618 13.231 15.2578V23.9949C16.1895 23.6868 18.9287 22.2926 20.9188 20.0819C22.9089 17.8712 24.0085 15.0011 24.0051 12.0266C24.0071 8.84092 22.744 5.78484 20.4936 3.53011C18.2431 1.27539 15.1895 0.0065545 12.0038 0.00253032" fill="#00B5EF"/>
</svg>
